<?xml version="1.0" encoding="UTF-8" standalone="no"?>
<!-- Created with sK1/UniConvertor (http://sk1project.org/) -->

<svg
   xmlns:dc="http://purl.org/dc/elements/1.1/"
   xmlns:cc="http://creativecommons.org/ns#"
   xmlns:rdf="http://www.w3.org/1999/02/22-rdf-syntax-ns#"
   xmlns:svg="http://www.w3.org/2000/svg"
   xmlns="http://www.w3.org/2000/svg"
   xmlns:sodipodi="http://sodipodi.sourceforge.net/DTD/sodipodi-0.dtd"
   xmlns:inkscape="http://www.inkscape.org/namespaces/inkscape"
   width="5000pt"
   height="2625pt"
   viewBox="0 0 5000 2625"
   fill-rule="evenodd"
   id="svg2"
   version="1.1"
   inkscape:version="0.48.3.1 r9886"
   sodipodi:docname="asd.svg">
  <metadata
     id="metadata14">
    <rdf:RDF>
      <cc:Work
         rdf:about="">
        <dc:format>image/svg+xml</dc:format>
        <dc:type
           rdf:resource="http://purl.org/dc/dcmitype/StillImage" />
      </cc:Work>
    </rdf:RDF>
  </metadata>
  <defs
     id="defs12" />
  <sodipodi:namedview
     pagecolor="#ffffff"
     bordercolor="#666666"
     borderopacity="1"
     objecttolerance="10"
     gridtolerance="10"
     guidetolerance="10"
     inkscape:pageopacity="0"
     inkscape:pageshadow="2"
     inkscape:window-width="1314"
     inkscape:window-height="744"
     id="namedview10"
     showgrid="false"
     inkscape:zoom="0.26428823"
     inkscape:cx="2749.3634"
     inkscape:cy="2400.6886"
     inkscape:window-x="52"
     inkscape:window-y="24"
     inkscape:window-maximized="1"
     inkscape:current-layer="svg2" />
  <g
     id="g4">
    <g
       id="g6">
      <path
         style="stroke:#000000;fill=green"
         d="m 2596,202 c -136.5819,8.05427 -259.3603,86.15668 -343.2281,191.50312 C 2142.1071,520.61647 2062.6269,673.31224 1940.1,790.3 c -28.2918,5.22295 -51.5372,-61.38824 -91.8125,-64.5 4.3898,-66.63177 11.9967,-133.48407 28.0125,-198.4 89.8814,-26.41953 194.2499,-61.76841 238.7437,-151.2875 19.0517,-97.82045 -116.5031,-64.28441 -166.9765,-37.30312 C 1869.6803,372.64228 1830.2749,455.11872 1807.2,532.5 1680.0376,545.94843 1547.8101,540.31115 1428.2656,593.5875 1327.2458,628.79157 1254.4851,732.31157 1265.6,840.3 c 57.2109,1.63271 84.7293,-27.06741 75.7676,-83.05879 17.4817,-115.69751 132.6354,-197.04233 246.4771,-193.07129 72.3887,-4.49447 144.9863,-8.2479 216.6553,-19.96992 -24.2586,58.73433 -7.4547,143.08505 -40.6,188.4 -66.6772,-3.5356 -137.3145,86.45915 -48.6734,116.53281 89.7506,-0.63948 23.7254,102.85089 22.6479,155.95569 -22.7125,98.2383 -82.9155,197.5528 -183.2955,229.2296 -69.9348,14.8767 -137.7704,-48.9542 -121.4743,-120.34 8.5251,-59.6212 49.7951,-117.58158 107.0953,-138.0781 29.4664,4.84017 113.4843,-36.6813 108.3422,-19.19375 -81.9976,-4.05047 -172.4379,16.362 -233.959,73.37165 -54.8424,49.6344 -82.882,152.1486 -17.2389,204.645 70.7947,42.2457 157.2338,9.2249 228.5885,-16.0667 125.672,-43.8259 182.1356,-179.5 199.2756,-301.68689 -16.8476,-58.86814 58.1468,-98.59424 68.5645,-25.88332 89.8688,203.66361 169.3233,428.80611 351.5781,569.85211 110.6551,82.9742 266.2483,115.0697 397.224,65.9869 -127.9165,13.7638 -261.9446,-23.4442 -357.0027,-112.2535 -150.8137,-132.7444 -225.3648,-326.4377 -303.303,-506.35861 -15.4298,-46.65125 -67.2501,-97.13454 6.4776,-117.82227 177.7223,-152.66104 264.9869,-387.53588 455.2281,-527.97812 57.5694,-60.38824 138.1525,-29.63717 207.9125,-39.575 C 2747.2776,206.30694 2616.1338,199.46917 2596,202 z m -583.5,129.5 c 79.6436,39.84833 -4.4692,124.74677 -54.2844,150.88594 -33.061,21.13807 -107.7434,62.68579 -66.8109,-7.64688 19.8985,-58.04792 56.0028,-114.60183 111.2328,-144.30156 l 9.8625,1.0625 0,0 z m -242.7,416.1 c 11.6528,24.63384 -4.404,108.67728 -25.9,38 -1.866,-13.03751 7.2047,-45.97971 25.9,-38 z m 86,69.1 c 36.5003,36.74974 -46.2319,34.20896 -16.2797,-9.05937 -2.1127,-29.61717 9.1945,0.61664 16.2797,9.05937 z"
         id="path8"
         inkscape:connector-curvature="0" />
    </g>
  </g>
</svg>
