<?xml version="1.0" encoding="UTF-8" standalone="no"?>
<!-- Created with Inkscape (http://www.inkscape.org/) -->

<svg
   xmlns:dc="http://purl.org/dc/elements/1.1/"
   xmlns:cc="http://creativecommons.org/ns#"
   xmlns:rdf="http://www.w3.org/1999/02/22-rdf-syntax-ns#"
   xmlns:svg="http://www.w3.org/2000/svg"
   xmlns="http://www.w3.org/2000/svg"
   xmlns:sodipodi="http://sodipodi.sourceforge.net/DTD/sodipodi-0.dtd"
   xmlns:inkscape="http://www.inkscape.org/namespaces/inkscape"
   width="744.09448819"
   height="1052.3622047"
   id="svg2"
   version="1.1"
   inkscape:version="0.48.3.1 r9886"
   sodipodi:docname="new.svg">
  <defs
     id="defs4" />
  <sodipodi:namedview
     id="base"
     pagecolor="#ffffff"
     bordercolor="#666666"
     borderopacity="1.0"
     inkscape:pageopacity="0.0"
     inkscape:pageshadow="2"
     inkscape:zoom="0.35"
     inkscape:cx="375"
     inkscape:cy="520"
     inkscape:document-units="px"
     inkscape:current-layer="layer1"
     showgrid="false"
     inkscape:window-width="1314"
     inkscape:window-height="744"
     inkscape:window-x="52"
     inkscape:window-y="24"
     inkscape:window-maximized="1" />
  <metadata
     id="metadata7">
    <rdf:RDF>
      <cc:Work
         rdf:about="">
        <dc:format>image/svg+xml</dc:format>
        <dc:type
           rdf:resource="http://purl.org/dc/dcmitype/StillImage" />
        <dc:title></dc:title>
      </cc:Work>
    </rdf:RDF>
  </metadata>
  <g
     inkscape:label="Layer 1"
     inkscape:groupmode="layer"
     id="layer1">
    <g
       transform="translate(-5.0642494,775.64787)"
       id="g3">
      <g
         transform="scale(1,-1)"
         id="g5">
        <path
           style="fill:#000000;stroke:none"
           inkscape:connector-curvature="0"
           d="m 760,149 c 1,0 2,0 1,-1 -13,-11 -28,-20 -43,-26 -9,-4 -19,-7 -28,-10 -9,-3 -19,-5 -29,-7 -11,-3 -22,-5 -32,-5 -13,0 -25,4 -38,11 -7,3 -13,7 -17,13 -6,4 -10,10 -15,16 C 546,123 533,107 520,92 506,77 491,62 475,49 460,37 445,27 430,20 425,17 419,14 413,12 407,10 401,8 396,7 387,4 379,2 370,0 c -8,-2 -17,-3 -26,-3 -11,-1 -21,2 -30,10 -5,4 -9,9 -12,15 -3,6 -5,12 -7,19 -3,10 -4,20 -5,31 -1,10 -1,20 -1,30 0,15 1,31 3,46 1,15 3,31 6,46 1,3 1,7 2,10 0,3 0,7 1,10 -3,-5 -5,-9 -7,-11 C 280,178 265,154 249,132 233,108 215,87 196,66 189,59 181,52 174,45 168,38 160,32 152,27 149,25 145,23 141,20 137,18 133,16 129,15 109,7 89,1 69,-2 62,-3 55,-4 48,-4 42,-3 36,-1 30,4 25,8 20,13 18,19 15,25 12,31 11,37 8,47 6,57 4,68 4,79 3,89 3,100 c 0,15 1,31 3,47 1,16 3,32 5,47 7,50 17,99 29,148 12,48 25,96 39,144 1,1 2,2 4,3 2,1 3,1 4,1 3,1 7,3 10,4 3,1 7,2 10,3 3,1 7,1 11,2 3,1 7,1 10,2 1,1 3,1 4,1 h 5 C 126,466 116,430 108,395 98,360 90,324 83,288 79,269 75,249 72,230 c -3,-19 -6,-39 -8,-58 -1,-13 -2,-27 -3,-41 -1,-14 0,-28 1,-42 1,-6 2,-13 2,-21 2,-7 3,-14 6,-22 2,-6 5,-13 10,-18 4,-6 10,-10 17,-13 4,3 7,5 8,6 9,7 17,14 23,21 8,7 15,15 22,22 9,11 18,21 26,32 19,25 37,52 54,80 16,27 31,55 46,84 37,72 67,146 92,221 1,1 2,2 4,3 2,0 3,0 4,1 l 21,6 c 7,3 14,4 20,5 h 4 5 c -11,-38 -22,-76 -32,-113 -11,-37 -20,-75 -28,-114 -3,-18 -6,-36 -10,-54 -2,-18 -5,-36 -7,-55 -1,-13 -2,-25 -3,-38 0,-13 1,-25 2,-38 1,-13 5,-26 10,-40 5,-14 14,-24 27,-29 1,0 1,0 1,-1 h 2 c 16,9 31,21 44,34 14,12 27,26 40,40 21,23 39,48 56,74 2,3 4,5 6,8 2,2 4,5 5,8 v 2 c -7,17 -11,35 -15,53 -2,18 -4,36 -5,54 0,19 1,39 4,58 3,19 7,38 13,56 5,16 13,31 22,46 10,15 23,26 39,33 9,4 19,7 29,10 9,3 19,5 28,6 3,1 7,1 11,2 4,0 8,0 11,-1 11,-3 19,-9 24,-20 3,-7 6,-15 6,-23 1,-7 1,-15 0,-22 -1,-12 -4,-24 -6,-35 -4,-11 -7,-23 -12,-34 -5,-13 -11,-26 -17,-39 -6,-12 -12,-24 -18,-37 -9,-16 -18,-32 -27,-47 -9,-16 -19,-32 -29,-47 1,-3 3,-5 3,-7 2,-3 3,-5 4,-8 7,-13 15,-24 24,-34 9,-11 21,-19 34,-24 l 8,-2 c 3,-1 6,-1 9,-1 10,5 18,11 25,17 2,1 4,2 7,3 3,1 5,1 6,2 7,3 14,5 23,7 3,1 5,1 8,2 3,0 6,0 9,1 h 3 M 578,281 c 1,-5 1,-11 2,-16 0,-5 1,-11 2,-16 5,9 10,19 15,28 l 14,28 c 8,17 15,34 23,51 6,17 11,35 14,53 1,5 1,11 1,18 0,7 -1,13 -2,19 -1,7 -4,13 -7,18 -3,5 -7,10 -12,13 -1,-1 -1,-2 -2,-3 -1,0 -1,-1 -2,-2 -11,-13 -20,-27 -26,-42 -5,-16 -10,-32 -13,-47 -7,-33 -9,-67 -7,-102 M 401,13 h -1 c 1,1 2,1 2,1 0,-1 0,-1 -1,-1"
           id="path7" />
      </g>
    </g>
  </g>
</svg>
