<?xml version="1.0" encoding="UTF-8" standalone="no"?>
<!-- Created with Inkscape (http://www.inkscape.org/) -->

<svg
   xmlns:dc="http://purl.org/dc/elements/1.1/"
   xmlns:cc="http://creativecommons.org/ns#"
   xmlns:rdf="http://www.w3.org/1999/02/22-rdf-syntax-ns#"
   xmlns:svg="http://www.w3.org/2000/svg"
   xmlns="http://www.w3.org/2000/svg"
   xmlns:sodipodi="http://sodipodi.sourceforge.net/DTD/sodipodi-0.dtd"
   xmlns:inkscape="http://www.inkscape.org/namespaces/inkscape"
   width="744.09448819"
   height="1052.3622047"
   id="svg3077"
   version="1.1"
   inkscape:version="0.48.3.1 r9886"
   sodipodi:docname="New document 6">
  <defs
     id="defs3079" />
  <sodipodi:namedview
     id="base"
     pagecolor="#ffffff"
     bordercolor="#666666"
     borderopacity="1.0"
     inkscape:pageopacity="0.0"
     inkscape:pageshadow="2"
     inkscape:zoom="0.35"
     inkscape:cx="375"
     inkscape:cy="520"
     inkscape:document-units="px"
     inkscape:current-layer="layer1"
     showgrid="false"
     inkscape:window-width="1314"
     inkscape:window-height="744"
     inkscape:window-x="52"
     inkscape:window-y="24"
     inkscape:window-maximized="1" />
  <metadata
     id="metadata3082">
    <rdf:RDF>
      <cc:Work
         rdf:about="">
        <dc:format>image/svg+xml</dc:format>
        <dc:type
           rdf:resource="http://purl.org/dc/dcmitype/StillImage" />
        <dc:title></dc:title>
      </cc:Work>
    </rdf:RDF>
  </metadata>
  
        <path
           inkscape:connector-curvature="0"
           d="m 612,760 c 1.33301,0 1.66699,-0.3291 1,-0.99609 -23.333,-16.667 -47.833,-30.5 -73.5,-41.5 -25.667,-11.0029 -52.5,-20.1699 -80.5,-27.5 -30,-8.66699 -60.333,-14.5 -90.999,-17.5 -30.667,-3 -61.334,-1.5 -92,4.5 -15.333,3.33301 -30.166,7.66602 -44.499,12.999 -14.333,5.33298 -28.166,11.666 -41.499,18.999 -5.33398,-29.3359 -10.501,-58.1689 -15.501,-86.5 -5,-28.334 -10.167,-57.167 -15.5,-86.5 -2.66699,-14 -5.16699,-28 -7.5,-42 -2.33301,-14.001 -4.83301,-28.334 -7.5,-43 20.667,11.333 41.834,20.333 63.501,27 21.667,6.667 43.834,12 66.501,16 30,5.34863 59.667,6.18164 89,2.5 29.334,-3.66699 56.667,-14.167 82,-31.5 22.667,-15.333 41,-34.5 55,-57.5 14,-23 23,-48.167 27,-75.5 4,-29.333 2.66699,-58 -4,-86 -6.66699,-28 -17.334,-54.333 -32.001,-79 -14.667,-24.667 -32.667,-47.167 -54,-67.500004 -21.333,-20.333 -44.666,-36.833 -69.999,-49.5 -17.333,-9.33301 -35.5,-17.166 -54.5,-23.499 -19,-6.333 -38.167,-11.5 -57.5,-15.5 -16,-3.33301 -32.167,-5.66602 -48.5,-6.99902 -16.333,-1.333 -32.833,-1 -49.5,1 -26,3.33301 -50.667,11.166 -74,23.499 -23.333,12.333 -43,29.166 -59,50.499 -0.666992,0 -0.5,0.333008 0.5,1 1,0.666992 2.16699,1.33398 3.5,2.00098 l 4,2 c 3.33301,1.33301 6.66602,2.33301 9.99902,3 3.333,0.66699 6.66602,1.66699 9.99902,3 3.33309 3.33398,19.333 6.66699,38.166 10,56.499 3.33301,18.333 6.66602,37.166 9.99902,56.499 0,1.33301 1.16699,2.33301 3.5,3 2.33301,0.69922 3.83301,1.03223 4.5,1 6,2.68945 12.667,5.02246 20,7 3.33301,0.70411 6.83301,1.37109 10.5,2 3.66699,0.69825 7.16699,1.36523 10.5,2 0.66797,0.667 2.00098,1.16699 4,1.5 2,0.33301 3.66699,0.16602 5,-0.50097 27.333,-25.334 58.666,-44.001 93.999,-56 24,-8 48.333,-13 73,-15 6.66699,-0.667 13.167,-1 19.5,-1 h 19.5 c 3.33301,0 6.5,0.16699 9.50098,0.5 3.00195,0.333 6.16895,0.5 9.50098,0.5 2,0.67578 5.33301,1.00879 10,1 0.66699,0.67578 2.33398,1.00879 5.00098,0.99902 1.33203,0.69727 2.99902,1.03027 5,1 2.00293,0.007 3.66992,0.33984 5,1 2.00488,0.0254 3.67188,0.3584 5,1 h 2 c 0.66699,-0.007 1,0.32617 1,0.99902 h 2 c 0.66699,0 1.16699,0.167 1.5,0.5 0.33301,0.33301 0.83301,0.5 1.5,0.5 h 1 c 0.66699,0 1,0.167 1,0.5 0,0.33301 0.33301,0.5 1,0.5 0.66699,0.67481 1.66699,1.00781 3,1 1.34766,0.67969 2.18066,1.0127 2.5,0.99903 0.34277,-0.0215 1.17578,0.31152 2.49902,1 0.66699,0.66113 1.33398,0.99414 2.00098,0.99902 h 1 c 2,0.66699 4.33301,1.66699 7,3 26.667,11.333 51,25 73,41 2,1.33301 4.16699,2.33301 6.5,3 2.33301,0.67773 4.5,1.34473 6.5,2 6.66797,2.66504 14.335,4.99805 23.001,6.99902 2.67773,0.66699 5.34473,1.16699 8.00098,1.5 2.66699,0.33301 5.66699,0.83301 9,1.5 h 3 z"
           id="path7-0" />
</svg>
