<?xml version="1.0" encoding="utf-8"?>
<!-- Generator: Adobe Illustrator 15.0.0, SVG Export Plug-In . SVG Version: 6.00 Build 0)  -->
<!DOCTYPE svg PUBLIC "-//W3C//DTD SVG 1.1//EN" "http://www.w3.org/Graphics/SVG/1.1/DTD/svg11.dtd">
<svg xmlns:inkscape="http://www.inkscape.org/namespaces/inkscape"
    xmlns:rdf="http://www.w3.org/1999/02/22-rdf-syntax-ns#"
    xmlns="http://www.w3.org/2000/svg"
    xmlns:sodipodi="http://sodipodi.sourceforge.net/DTD/sodipodi-0.dtd"
    xmlns:cc="http://creativecommons.org/ns#"
    xmlns:xlink="http://www.w3.org/1999/xlink"
    xmlns:dc="http://purl.org/dc/elements/1.1/"
    xmlns:svg="http://www.w3.org/2000/svg"
    xmlns:ns1="http://sozi.baierouge.fr"
    id="svg2495"
    sodipodi:docname="basket.svg"
    viewBox="0 0 370 370"
    sodipodi:version="0.32"
    version="1.0"
    inkscape:output_extension="org.inkscape.output.svg.inkscape"
    inkscape:version="0.45+devel+devel">
<g id="Linear_Logo">
</g>
<g id="Stack_Logo">
	<g>
		
			<linearGradient id="SVGID_1_" gradientUnits="userSpaceOnUse" x1="366.6514" y1="133.4482" x2="372.3454" y2="156.2248" gradientTransform="matrix(1 0 0 -1 -201 433.5713)">
			<stop  offset="0" style="stop-color:#032E6C"/>
			<stop  offset="1" style="stop-color:#00A6FF"/>
		</linearGradient>
		<path fill="url(#SVGID_1_)" d="M145.601,252.77c0,0-9.359,18.582,3.441,41.294c0,0,19.683,14.818,48.313,8.946
			c0,0-31.151-1.925-24.361-24.684C172.995,278.326,158.08,250.017,145.601,252.77z"/>
		
			<linearGradient id="SVGID_2_" gradientUnits="userSpaceOnUse" x1="376.9141" y1="179.9473" x2="386.0128" y2="194.2847" gradientTransform="matrix(1 0 0 -1 -201 433.5713)">
			<stop  offset="0" style="stop-color:#032E6C"/>
			<stop  offset="1" style="stop-color:#00A6FF"/>
		</linearGradient>
		<path fill="url(#SVGID_2_)" d="M168.725,229.37c0,0,6.885,10.278,5.416,21.29c0,0,7.522,9.726,16.701,7.524
			c9.176-2.203,13.766-12.849,10.095-21.473S180.562,224.598,168.725,229.37z"/>
		
			<radialGradient id="SVGID_3_" cx="346.917" cy="159.1919" r="14.8233" gradientTransform="matrix(1 0 0 -1 -201 433.5713)" gradientUnits="userSpaceOnUse">
			<stop  offset="0.3879" style="stop-color:#A5A5A5"/>
			<stop  offset="1" style="stop-color:#FFFFFF"/>
		</radialGradient>
		<path fill="url(#SVGID_3_)" d="M145.05,253.733c0,0-3.419,10.983-1.445,22.643c1.928,11.376,5.943,18.65,5.943,18.65
			s-4.635-5.919-6.697-18.122C140.875,265.211,144.683,255.428,145.05,253.733z"/>
		
			<radialGradient id="SVGID_4_" cx="394.1416" cy="168.166" r="43.0281" gradientTransform="matrix(1 0 0 -1 -201 433.5713)" gradientUnits="userSpaceOnUse">
			<stop  offset="0.0242" style="stop-color:#FFFFFF"/>
			<stop  offset="1" style="stop-color:#A5A5A5"/>
		</radialGradient>
		<path fill="url(#SVGID_4_)" d="M168.725,229.37c0,0,8.534-4.68,23.675-3.579c15.142,1.101,35.513,14.59,37.99,39.367
			c0,0-9.279,26.398-50.928,15.69c-24.088-6.193-34.412-27.115-34.412-27.115s3.992-9.223,12.389-16.38
			c0,0,7.517,1.381,17.253,10.921c9.177,8.993,14.68,10.276,19.772,6.973c5.094-3.305,9.361-9.636,4.268-17.481
			C193.639,229.921,180.15,225.654,168.725,229.37z M148.447,292.962c0,0,11.699,21.061,35.374,21.061
			c23.676,0,34.962-13.488,40.606-22.851c0,0-10.736,12.663-40.33,12.663C158.632,303.835,148.447,292.962,148.447,292.962z"/>
		
			<radialGradient id="SVGID_5_" cx="384.8447" cy="191.9043" r="18.8319" gradientTransform="matrix(1 0 0 -1 -201 433.5713)" gradientUnits="userSpaceOnUse">
			<stop  offset="0" style="stop-color:#A5A5A5"/>
			<stop  offset="1" style="stop-color:#FFFFFF"/>
		</radialGradient>
		<path fill="url(#SVGID_5_)" d="M203.666,241.438c2.386,7.34-2.845,16.012-11.516,17.389c-9.053,1.437-12.754-3.994-19.361-10.966
			c-6.607-6.973-15.279-10.644-15.279-10.644s7.518,1.38,17.254,10.92c9.176,8.992,14.68,10.276,19.773,6.973
			c5.093-3.303,9.359-9.635,4.268-17.48c-5.094-7.846-18.583-12.112-30.008-8.396C187.976,223.176,201.169,233.751,203.666,241.438z
			"/>
		
			<linearGradient id="SVGID_6_" gradientUnits="userSpaceOnUse" x1="348.8965" y1="135.4966" x2="395.3262" y2="135.4966" gradientTransform="matrix(1 0 0 -1 -201 433.5713)">
			<stop  offset="0.0242" style="stop-color:#FFFFFF"/>
			<stop  offset="1" style="stop-color:#A5A5A5"/>
		</linearGradient>
		<path fill="url(#SVGID_6_)" d="M147.896,291.905c0,0,0.735,1.837,1.652,3.121c0,0,14.955,12.574,44.779,8.352
			C194.328,303.378,167.167,305.212,147.896,291.905z"/>
		
			<radialGradient id="SVGID_7_" cx="362.7061" cy="166.8081" r="18.773" gradientTransform="matrix(1 0 0 -1 -201 433.5713)" gradientUnits="userSpaceOnUse">
			<stop  offset="0.3091" style="stop-color:#A5A5A5"/>
			<stop  offset="1" style="stop-color:#FFFFFF"/>
		</radialGradient>
		<path fill="url(#SVGID_7_)" d="M145.601,252.77c0,0-0.459,0.734-0.918,2.479c0,0,10.005,19.084,34.045,25.508
			C178.728,280.756,154.501,272.222,145.601,252.77z"/>
		<g opacity="0.3" enable-background="new    ">
			<g>
				<defs>
					<path id="SVGID_8_" d="M216.901,235.151c0,0-25.877-7.157-30.831,0.551c-4.957,7.708-8.442,16.427-8.442,16.427
						s-8.995-8.442-14.684-4.037c-7.196,5.57-5.78,16.792-4.954,21.472l6.056,27.252c0,0-1.376,12.388,19.821,18.168
						c0,0-37.16,0.667-42.395-39.365c-4.681-35.788,30.282-48.727,36.889-50.103S203.689,223.314,216.901,235.151z"/>
				</defs>
				<clipPath id="SVGID_9_">
					<use xlink:href="#SVGID_8_"  overflow="visible"/>
				</clipPath>
				<path clip-path="url(#SVGID_9_)" fill="#FFFFFF" d="M168.725,229.37c0,0,8.534-4.68,23.675-3.579
					c15.142,1.101,35.513,14.59,37.99,39.367c0,0-9.279,26.398-50.928,15.69c-24.088-6.193-34.412-27.115-34.412-27.115
					s3.992-9.223,12.389-16.38c0,0,7.517,1.381,17.253,10.921c9.177,8.993,14.68,10.276,19.772,6.973
					c5.094-3.305,9.361-9.636,4.268-17.481C193.639,229.921,180.15,225.654,168.725,229.37z M148.447,292.962
					c0,0,11.699,21.061,35.374,21.061c23.676,0,34.962-13.488,40.606-22.851c0,0-10.736,12.663-40.33,12.663
					C158.632,303.835,148.447,292.962,148.447,292.962z"/>
			</g>
		</g>
	</g>
	
		<radialGradient id="SVGID_10_" cx="386.7158" cy="188.7632" r="57.9009" gradientTransform="matrix(1 0 0 -0.1356 -201 339.1722)" gradientUnits="userSpaceOnUse">
		<stop  offset="0.0242" style="stop-color:#03306E"/>
		<stop  offset="1" style="stop-color:#FEFEFE;stop-opacity:0"/>
	</radialGradient>
	<ellipse fill="url(#SVGID_10_)" cx="185.716" cy="313.576" rx="59.216" ry="7.852"/>
	<g>
		<linearGradient id="SVGID_11_" gradientUnits="userSpaceOnUse" x1="244.8579" y1="275.145" x2="244.8579" y2="267.4438">
			<stop  offset="0" style="stop-color:#A5A5A5"/>
			<stop  offset="0.9758" style="stop-color:#FFFFFF"/>
		</linearGradient>
		<path fill="url(#SVGID_11_)" d="M233.313,275.145c3.875-4.109,3.839-7.701,3.839-7.701h19.251v7.701h-16.25
			C240.153,275.145,235.375,275.145,233.313,275.145z"/>
		
			<linearGradient id="SVGID_12_" gradientUnits="userSpaceOnUse" x1="484.002" y1="140.0605" x2="484.002" y2="184.0276" gradientTransform="matrix(1 0 0 -1 -201 433.5713)">
			<stop  offset="0" style="stop-color:#032E6C"/>
			<stop  offset="1" style="stop-color:#00A6FF"/>
		</linearGradient>
		<path fill="url(#SVGID_12_)" d="M263.875,263.762v-0.501c0-2.232,0.743-4.137,2.228-5.719c1.485-1.582,3.298-2.373,5.432-2.373
			l22.938,0.056l7.657-0.056v8.593h-27.028h-2.15H263.875z M263.875,279.05v8.593h7.66l22.938-0.056
			c2.187,0.037,4.013-0.659,5.47-2.093c1.46-1.429,2.188-3.58,2.188-6.444v-3.681c0-2.827-0.643-4.818-1.922-5.971
			c-1.285-1.154-3.21-1.732-5.778-1.732h-24.478h-6.078c0.053,2.532,0.755,4.431,2.108,5.693c1.35,1.267,3.185,1.936,5.512,2.01
			h24.313v3.681L263.875,279.05L263.875,279.05z"/>
		
			<linearGradient id="SVGID_13_" gradientUnits="userSpaceOnUse" x1="526.5957" y1="140.0605" x2="526.5957" y2="184.0276" gradientTransform="matrix(1 0 0 -1 -201 433.5713)">
			<stop  offset="0" style="stop-color:#032E6C"/>
			<stop  offset="1" style="stop-color:#00A6FF"/>
		</linearGradient>
		<path fill="url(#SVGID_13_)" d="M306.467,263.762v-0.501c0-2.232,0.743-4.137,2.229-5.719c1.485-1.582,3.296-2.373,5.431-2.373
			l22.938,0.056l7.656-0.056v8.593h-27.028h-2.149H306.467z M339.374,278.828h5.35v8.816h-7.658h-22.938
			c-2.135,0-3.945-0.79-5.428-2.373c-1.487-1.578-2.23-3.487-2.23-5.717v-12.109h38.255v7.702h-32.175v3.683h5.103h15.968h5.755
			V278.828z"/>
		
			<linearGradient id="SVGID_14_" gradientUnits="userSpaceOnUse" x1="569.1904" y1="140.0605" x2="569.1904" y2="184.0279" gradientTransform="matrix(1 0 0 -1 -201 433.5713)">
			<stop  offset="0" style="stop-color:#032E6C"/>
			<stop  offset="1" style="stop-color:#00A6FF"/>
		</linearGradient>
		<path fill="url(#SVGID_14_)" d="M355.139,287.644h-6.077v-23.882v-8.593h7.659l22.936,0.056c2.136,0,3.947,0.792,5.433,2.374
			c1.484,1.582,2.23,3.486,2.23,5.719v16.238v8.09h-6.081l0.041-13.39v-6.25c-0.188-1.118-0.758-2.104-1.705-2.959
			c-0.942-0.855-2.133-1.284-3.563-1.284h-15.726h-5.228l0.08,10.603v4.463V287.644L355.139,287.644z"/>
		
			<linearGradient id="SVGID_15_" gradientUnits="userSpaceOnUse" x1="611.7813" y1="140.0605" x2="611.7813" y2="184.0276" gradientTransform="matrix(1 0 0 -1 -201 433.5713)">
			<stop  offset="0" style="stop-color:#032E6C"/>
			<stop  offset="1" style="stop-color:#00A6FF"/>
		</linearGradient>
		<path fill="url(#SVGID_15_)" d="M391.656,263.762v-0.501c0-2.232,0.74-4.137,2.227-5.719c1.485-1.582,3.298-2.373,5.432-2.373
			l22.938,0.056l7.658-0.056v8.593h-27.032h-2.147H391.656z M391.656,279.05v8.593h7.658l22.938-0.056
			c2.189,0.037,4.012-0.659,5.472-2.093c1.456-1.429,2.187-3.58,2.187-6.444v-3.681c0-2.827-0.643-4.818-1.925-5.971
			c-1.285-1.154-3.21-1.732-5.774-1.732h-24.48h-6.077c0.052,2.532,0.755,4.431,2.107,5.693c1.35,1.267,3.187,1.936,5.512,2.01
			h24.315v3.681L391.656,279.05L391.656,279.05z"/>
		
			<linearGradient id="SVGID_16_" gradientUnits="userSpaceOnUse" x1="654.376" y1="140.0605" x2="654.376" y2="184.0276" gradientTransform="matrix(1 0 0 -1 -201 433.5713)">
			<stop  offset="0" style="stop-color:#032E6C"/>
			<stop  offset="1" style="stop-color:#00A6FF"/>
		</linearGradient>
		<path fill="url(#SVGID_16_)" d="M434.247,263.762v-0.501c0-2.232,0.74-4.137,2.228-5.719c1.485-1.582,3.295-2.373,5.433-2.373
			l22.936,0.056l7.659-0.056v8.593h-27.028h-2.149H434.247z M467.156,278.828h5.349v8.816h-7.662h-22.936
			c-2.135,0-3.947-0.79-5.433-2.373c-1.484-1.578-2.225-3.487-2.225-5.717v-12.109h38.255v7.702h-32.178v3.683h5.104h15.97h5.755
			V278.828z"/>
	</g>
	<g>
		<g>
			<radialGradient id="SVGID_17_" cx="244.5977" cy="271.2651" r="9.0976" gradientUnits="userSpaceOnUse">
				<stop  offset="0.0242" style="stop-color:#FFFFFF"/>
				<stop  offset="1" style="stop-color:#A5A5A5"/>
			</radialGradient>
			<path fill="url(#SVGID_17_)" d="M256.758,275.468c0,0-19.852,0-24.32,0c3.188-2.745,4.363-8.405,4.363-8.405h19.958V275.468z
				 M234.375,274.764c4.031,0,21.675,0,21.675,0v-6.996h-18.544C237.506,267.768,237.188,271.442,234.375,274.764z"/>
		</g>
		<g>
			<path fill="#00A6FF" d="M271.537,287.966h-8.012v-9.299h31.933v-2.976h-23.963c-2.413-0.075-4.345-0.782-5.752-2.104
				c-1.417-1.324-2.163-3.324-2.217-5.944l-0.007-0.36h30.916c2.642,0,4.664,0.614,6.008,1.823c1.359,1.217,2.045,3.314,2.045,6.231
				v3.683c0,2.951-0.773,5.203-2.294,6.695c-1.482,1.457-3.35,2.194-5.555,2.194l-0.17-0.001L271.537,287.966z M264.23,287.262
				h7.304l22.938-0.057l0.167,0.001c2.01,0,3.712-0.668,5.057-1.993c1.383-1.354,2.082-3.438,2.082-6.192v-3.683
				c0-2.708-0.607-4.629-1.808-5.708c-1.209-1.088-3.072-1.64-5.539-1.64H264.24c0.107,2.245,0.775,3.954,1.985,5.083
				c1.28,1.2,3.057,1.844,5.282,1.914h24.656v4.388H264.23V287.262z M302.486,264.085h-38.961v-0.854c0-2.316,0.78-4.321,2.322-5.96
				c1.548-1.647,3.46-2.483,5.687-2.483l22.938,0.056l8.014-0.059V264.085z M264.23,263.379h37.549v-7.884l-7.301,0.054
				l-22.944-0.058c-2.022,0-3.762,0.762-5.172,2.265c-1.415,1.504-2.132,3.347-2.132,5.477V263.379L264.23,263.379z"/>
		</g>
		<g>
			<path fill="#00A6FF" d="M345.077,287.966h-30.948c-2.228,0-4.14-0.834-5.688-2.483c-1.542-1.638-2.324-3.645-2.324-5.959v-12.46
				h38.96v8.405h-32.176v2.977h32.176V287.966z M306.822,267.768v11.756c0,2.131,0.717,3.973,2.132,5.476
				c1.41,1.501,3.15,2.263,5.175,2.263h30.242v-8.11h-32.175v-4.389h32.175v-6.996H306.822z M345.077,264.085h-38.96v-0.854
				c0-2.316,0.782-4.321,2.324-5.96c1.548-1.647,3.46-2.483,5.688-2.483l22.938,0.056l8.01-0.059V264.085z M306.822,263.379h37.549
				v-7.884l-7.301,0.054l-22.943-0.058c-2.022,0-3.763,0.762-5.17,2.265c-1.418,1.504-2.135,3.347-2.135,5.477V263.379z"/>
		</g>
		<g>
			<path fill="#00A6FF" d="M387.671,287.966h-6.784l0.04-19.993c-0.168-0.972-0.702-1.898-1.585-2.695
				c-0.875-0.791-1.995-1.193-3.33-1.193h-20.598l0.079,14.713v9.168h-6.784v-33.179h8.012l22.938,0.056
				c2.225,0,4.139,0.834,5.687,2.481c1.543,1.644,2.322,3.648,2.322,5.96v24.681H387.671z M381.594,287.262h5.372v-23.975
				c0-2.127-0.72-3.971-2.132-5.477c-1.412-1.501-3.152-2.261-5.175-2.261l-30.245-0.058v31.771h5.372v-12.927l-0.083-10.955h21.309
				c1.515,0,2.795,0.463,3.803,1.376c1.002,0.906,1.612,1.97,1.814,3.16l0.002,6.309L381.594,287.262z"/>
		</g>
		<g>
			<path fill="#00A6FF" d="M399.314,287.966h-8.014v-9.299h31.936v-2.976h-23.964c-2.412-0.075-4.344-0.782-5.752-2.104
				c-1.417-1.324-2.162-3.324-2.22-5.944l-0.008-0.36h30.921c2.642,0,4.664,0.614,6.007,1.823c1.357,1.215,2.045,3.313,2.045,6.231
				v3.683c0,2.951-0.774,5.202-2.295,6.695c-1.482,1.457-3.352,2.194-5.553,2.194l-0.175-0.001L399.314,287.966z M392.009,287.262
				h7.306l22.939-0.057l0.167,0.001c2.008,0,3.71-0.668,5.058-1.993c1.382-1.356,2.082-3.439,2.082-6.192v-3.683
				c0-2.709-0.607-4.629-1.808-5.708c-1.21-1.088-3.072-1.64-5.537-1.64h-30.195c0.11,2.245,0.775,3.954,1.985,5.083
				c1.279,1.2,3.057,1.844,5.281,1.914h24.656v4.388h-31.933v7.887H392.009z M430.266,264.085h-38.963v-0.854
				c0-2.316,0.782-4.321,2.325-5.96c1.548-1.647,3.46-2.483,5.687-2.483l22.939,0.056l8.012-0.059V264.085z M392.009,263.379h37.552
				v-7.884l-7.304,0.054l-22.942-0.058c-2.021,0-3.762,0.762-5.172,2.265c-1.417,1.504-2.134,3.347-2.134,5.477V263.379z"/>
		</g>
		<g>
			<path fill="#00A6FF" d="M472.857,287.966h-30.95c-2.228,0-4.141-0.834-5.687-2.483c-1.543-1.635-2.325-3.643-2.325-5.959v-12.46
				h38.962v8.405h-32.181v2.977h32.181V287.966z M434.601,267.768v11.756c0,2.131,0.719,3.974,2.135,5.476
				c1.409,1.501,3.149,2.263,5.175,2.263h30.242v-8.11h-32.178v-4.389h32.178v-6.996H434.601z M472.857,264.085h-38.962v-0.854
				c0-2.317,0.782-4.322,2.325-5.96c1.546-1.647,3.459-2.483,5.687-2.483l22.938,0.056l8.012-0.059V264.085z M434.601,263.379
				h37.552v-7.884l-7.305,0.054l-22.938-0.058c-2.025,0-3.766,0.762-5.175,2.265c-1.416,1.504-2.135,3.346-2.135,5.477V263.379z"/>
		</g>
	</g>
	<g>
		<g>
			<path fill="#1A1A1A" d="M266.962,303.532h-2.978v-8.499v-3.059h2.978v3.059v1.271v2.503V303.532z"/>
			<path fill="#1A1A1A" d="M279.929,303.532h-2.979v-8.499h-3.376h-4.448v-3.059h3.753l11.24,0.021l3.753-0.021v3.059h-7.943
				V303.532L279.929,303.532z"/>
			<path fill="#1A1A1A" d="M301.914,294.852c0-0.794,0.361-1.471,1.091-2.035c0.726-0.563,1.614-0.844,2.661-0.844l11.239,0.021
				l3.753-0.021v3.059h-13.246h-2.522v1.389h11.994c1.258,0,2.2,0.207,2.83,0.617c0.629,0.408,0.944,1.119,0.944,2.123v1.313
				c0,1.02-0.357,1.784-1.072,2.292c-0.716,0.51-1.616,0.765-2.702,0.765h-11.22h-3.754v-3.059h15.647v-1.313h-11.914
				c-1.139-0.025-2.038-0.264-2.702-0.713c-0.662-0.45-1.004-1.125-1.033-2.026v-0.795v-0.773H301.914z"/>
			<path fill="#1A1A1A" d="M322.783,300.652v-5.8c0-0.794,0.364-1.471,1.092-2.035c0.729-0.563,1.614-0.844,2.661-0.844
				l11.238,0.021c1.047,0,1.934,0.28,2.661,0.841c0.729,0.564,1.091,1.243,1.091,2.034v5.781c0,0.795-0.362,1.474-1.091,2.036
				c-0.728,0.564-1.614,0.845-2.661,0.845h-11.238c-1.047,0-1.933-0.281-2.661-0.845
				C323.146,302.125,322.783,301.447,322.783,300.652z M338.57,298.765v-2.223c-0.094-0.396-0.371-0.749-0.836-1.052
				c-0.464-0.304-1.045-0.457-1.747-0.457h-7.705c-0.701,0-1.291,0.152-1.766,0.457c-0.478,0.303-0.729,0.669-0.755,1.092v2.224
				c0,0.422,0.237,0.794,0.713,1.112c0.478,0.317,1.074,0.476,1.787,0.476h7.726c0.701,0,1.306-0.161,1.816-0.486
				C338.314,299.583,338.57,299.202,338.57,298.765z"/>
			<path fill="#1A1A1A" d="M359.778,300.393h2.621v3.139h-3.754h-11.238c-1.046,0-1.935-0.281-2.661-0.845
				c-0.728-0.562-1.092-1.241-1.092-2.036v-5.8v-2.878h2.979v4.607v2.224c0,0.422,0.237,0.794,0.717,1.112
				c0.473,0.317,1.069,0.476,1.785,0.476h7.823L359.778,300.393L359.778,300.393z"/>
			<path fill="#1A1A1A" d="M380.313,298.765v-2.223l-0.021-4.567h2.978v2.896v5.781c0,0.795-0.364,1.474-1.09,2.036
				c-0.729,0.564-1.617,0.845-2.66,0.845h-11.241c-1.045,0-1.932-0.281-2.66-0.845c-0.728-0.562-1.092-1.241-1.092-2.036v-8.677
				h2.979v6.831c0,0.422,0.238,0.794,0.716,1.112c0.475,0.317,1.071,0.476,1.785,0.476h7.825c0.634,0,1.208-0.161,1.718-0.486
				C380.055,299.583,380.313,299.202,380.313,298.765z"/>
			<path fill="#1A1A1A" d="M396.197,303.532h-2.979v-8.499h-3.378h-4.446v-3.059h3.752l11.24,0.021l3.753-0.021v3.059h-7.942
				V303.532L396.197,303.532z"/>
			<path fill="#1A1A1A" d="M409.243,303.532h-2.979v-8.499v-3.059h2.979v3.059v1.271v2.503V303.532z"/>
			<path fill="#1A1A1A" d="M411.408,300.652v-5.8c0-0.794,0.364-1.471,1.092-2.035c0.728-0.563,1.613-0.844,2.661-0.844
				l11.239,0.021c1.044,0,1.932,0.28,2.66,0.841c0.729,0.564,1.093,1.243,1.093,2.034v5.781c0,0.795-0.363,1.474-1.093,2.036
				c-0.728,0.564-1.615,0.845-2.66,0.845h-11.239c-1.048,0-1.934-0.281-2.661-0.845
				C411.772,302.125,411.408,301.447,411.408,300.652z M427.195,298.765v-2.223c-0.093-0.396-0.371-0.749-0.835-1.052
				c-0.463-0.304-1.046-0.457-1.747-0.457h-7.705c-0.702,0-1.289,0.152-1.768,0.457c-0.478,0.303-0.726,0.669-0.754,1.092v2.224
				c0,0.422,0.237,0.794,0.715,1.112c0.477,0.317,1.072,0.476,1.788,0.476h7.723c0.701,0,1.309-0.161,1.818-0.486
				C426.94,299.583,427.195,299.202,427.195,298.765z"/>
			<path fill="#1A1A1A" d="M448.046,300.393v-3.971v-4.448h2.979v8.677v2.88h-2.979l-12.748-8.499h-3.02v-3.059h3.059
				L448.046,300.393z M432.278,296.421v7.11h2.98v-4.251v-2.859H432.278z"/>
		</g>
		<g>
			<path fill="#1A1A1A" d="M460.777,293.899c0,0.301-0.105,0.557-0.315,0.767c-0.211,0.211-0.467,0.316-0.768,0.316h-2.607v1.902
				h-1.083v-2.985h3.578c0.032,0,0.063-0.011,0.08-0.03c0.023-0.021,0.031-0.046,0.031-0.076v-0.599
				c0-0.071-0.037-0.108-0.112-0.108h-3.578v-1.084h3.689c0.294,0,0.547,0.106,0.764,0.317c0.213,0.208,0.321,0.466,0.321,0.766
				V293.899L460.777,293.899z"/>
			<path fill="#1A1A1A" d="M466.771,292.003l-2.089,4.475c-0.075,0.157-0.183,0.278-0.321,0.361
				c-0.139,0.083-0.299,0.123-0.479,0.123c-0.184,0-0.345-0.037-0.483-0.118c-0.138-0.079-0.242-0.2-0.318-0.366l-2.082-4.475h1.246
				l1.542,3.296c0.019,0.046,0.052,0.069,0.096,0.069c0.053,0,0.084-0.023,0.096-0.069l1.546-3.296H466.771L466.771,292.003z"/>
			<path fill="#1A1A1A" d="M471.964,293.087h-4.881v-1.084h4.881V293.087z M470.067,296.885h-1.083v-3.257h1.083V296.885z"/>
			<path fill="#1A1A1A" d="M472.393,296.885h-1.083v-1.084h1.083V296.885z"/>
			<path fill="#1A1A1A" d="M460.35,303.657h-3.256c-0.303,0-0.557-0.107-0.766-0.317c-0.213-0.208-0.316-0.467-0.316-0.767v-3.798
				h1.082v3.685c0,0.032,0.012,0.061,0.032,0.083c0.021,0.019,0.045,0.029,0.076,0.029h3.147V303.657z"/>
			<path fill="#1A1A1A" d="M463.858,299.86h-4.88v-1.085h4.88V299.86z M461.962,303.657h-1.081V300.4h1.081V303.657z"/>
			<path fill="#1A1A1A" d="M469.379,301.213c0,0.716-0.092,1.275-0.27,1.683c-0.227,0.508-0.587,0.762-1.087,0.762h-3.524v-4.882
				h3.524c0.521,0,0.891,0.254,1.108,0.762C469.296,299.926,469.379,300.484,469.379,301.213z M468.271,301.213
				c0-0.443-0.023-0.781-0.077-1.01c-0.052-0.229-0.145-0.343-0.282-0.343h-2.332v2.712h2.332c0.132,0,0.226-0.117,0.279-0.355
				C468.246,301.981,468.271,301.646,468.271,301.213z"/>
			<path fill="#1A1A1A" d="M471.427,303.657h-1.084v-1.084h1.084V303.657z"/>
		</g>
	</g>
</g>
<g id="Stack_Logo_1_">
	<g>
		
			<linearGradient id="SVGID_18_" gradientUnits="userSpaceOnUse" x1="360.627" y1="20.7813" x2="366.321" y2="43.5578" gradientTransform="matrix(1 0 0 -1 -201 433.5713)">
			<stop  offset="0" style="stop-color:#032E6C"/>
			<stop  offset="1" style="stop-color:#00A6FF"/>
		</linearGradient>
		<path fill="url(#SVGID_18_)" d="M139.577,365.436c0,0-9.359,18.582,3.441,41.295c0,0,19.683,14.817,48.313,8.945
			c0,0-31.151-1.925-24.361-24.684C166.971,390.993,152.056,362.684,139.577,365.436z"/>
		
			<linearGradient id="SVGID_19_" gradientUnits="userSpaceOnUse" x1="370.8896" y1="67.2808" x2="379.9883" y2="81.6182" gradientTransform="matrix(1 0 0 -1 -201 433.5713)">
			<stop  offset="0" style="stop-color:#032E6C"/>
			<stop  offset="1" style="stop-color:#00A6FF"/>
		</linearGradient>
		<path fill="url(#SVGID_19_)" d="M162.701,342.037c0,0,6.885,10.278,5.416,21.29c0,0,7.522,9.727,16.701,7.523
			c9.176-2.203,13.766-12.849,10.095-21.473S174.538,337.264,162.701,342.037z"/>
		
			<radialGradient id="SVGID_20_" cx="340.8926" cy="46.5259" r="14.8233" gradientTransform="matrix(1 0 0 -1 -201 433.5713)" gradientUnits="userSpaceOnUse">
			<stop  offset="0.3879" style="stop-color:#A5A5A5"/>
			<stop  offset="1" style="stop-color:#FFFFFF"/>
		</radialGradient>
		<path fill="url(#SVGID_20_)" d="M139.026,366.399c0,0-3.419,10.983-1.445,22.644c1.928,11.376,5.943,18.649,5.943,18.649
			s-4.635-5.918-6.697-18.121C134.851,377.877,138.659,368.094,139.026,366.399z"/>
		
			<radialGradient id="SVGID_21_" cx="388.1162" cy="55.4995" r="43.0287" gradientTransform="matrix(1 0 0 -1 -201 433.5713)" gradientUnits="userSpaceOnUse">
			<stop  offset="0.0242" style="stop-color:#FFFFFF"/>
			<stop  offset="1" style="stop-color:#A5A5A5"/>
		</radialGradient>
		<path fill="url(#SVGID_21_)" d="M162.701,342.037c0,0,8.534-4.681,23.675-3.579c15.142,1.102,35.513,14.59,37.99,39.367
			c0,0-9.279,26.398-50.928,15.689c-24.088-6.193-34.412-27.115-34.412-27.115s3.992-9.223,12.389-16.379
			c0,0,7.517,1.381,17.253,10.92c9.177,8.994,14.68,10.276,19.772,6.974c5.094-3.306,9.361-9.636,4.268-17.481
			C187.615,342.587,174.126,338.321,162.701,342.037z M142.423,405.628c0,0,11.699,21.061,35.374,21.061
			c23.676,0,34.962-13.488,40.606-22.851c0,0-10.736,12.663-40.33,12.663C152.608,416.501,142.423,405.628,142.423,405.628z"/>
		
			<radialGradient id="SVGID_22_" cx="378.8213" cy="79.2378" r="18.8319" gradientTransform="matrix(1 0 0 -1 -201 433.5713)" gradientUnits="userSpaceOnUse">
			<stop  offset="0" style="stop-color:#A5A5A5"/>
			<stop  offset="1" style="stop-color:#FFFFFF"/>
		</radialGradient>
		<path fill="url(#SVGID_22_)" d="M197.642,354.104c2.386,7.34-2.845,16.013-11.516,17.39c-9.053,1.437-12.754-3.994-19.361-10.966
			c-6.607-6.973-15.279-10.645-15.279-10.645s7.518,1.381,17.254,10.92c9.176,8.992,14.68,10.276,19.773,6.973
			c5.093-3.303,9.359-9.635,4.268-17.479c-5.094-7.846-18.583-12.112-30.008-8.396C181.952,335.842,195.145,346.417,197.642,354.104
			z"/>
		
			<linearGradient id="SVGID_23_" gradientUnits="userSpaceOnUse" x1="342.8721" y1="22.8306" x2="389.3027" y2="22.8306" gradientTransform="matrix(1 0 0 -1 -201 433.5713)">
			<stop  offset="0.0242" style="stop-color:#FFFFFF"/>
			<stop  offset="1" style="stop-color:#A5A5A5"/>
		</linearGradient>
		<path fill="url(#SVGID_23_)" d="M141.872,404.571c0,0,0.735,1.838,1.652,3.121c0,0,14.955,12.574,44.779,8.353
			C188.304,416.044,161.143,417.878,141.872,404.571z"/>
		
			<radialGradient id="SVGID_24_" cx="356.6816" cy="54.1416" r="18.7732" gradientTransform="matrix(1 0 0 -1 -201 433.5713)" gradientUnits="userSpaceOnUse">
			<stop  offset="0.3091" style="stop-color:#A5A5A5"/>
			<stop  offset="1" style="stop-color:#FFFFFF"/>
		</radialGradient>
		<path fill="url(#SVGID_24_)" d="M139.577,365.436c0,0-0.459,0.734-0.918,2.479c0,0,10.005,19.084,34.045,25.508
			C172.704,393.422,148.477,384.889,139.577,365.436z"/>
		<g opacity="0.3" enable-background="new    ">
			<g>
				<defs>
					<path id="SVGID_25_" d="M210.877,347.817c0,0-25.877-7.156-30.831,0.552c-4.957,7.708-8.442,16.427-8.442,16.427
						s-8.995-8.441-14.684-4.037c-7.196,5.57-5.78,16.792-4.954,21.473l6.056,27.252c0,0-1.376,12.388,19.821,18.168
						c0,0-37.16,0.667-42.395-39.365c-4.681-35.788,30.282-48.727,36.889-50.104C178.944,336.807,197.665,335.981,210.877,347.817z"
						/>
				</defs>
				<clipPath id="SVGID_26_">
					<use xlink:href="#SVGID_25_"  overflow="visible"/>
				</clipPath>
				<path clip-path="url(#SVGID_26_)" fill="#FFFFFF" d="M162.701,342.037c0,0,8.534-4.681,23.675-3.579
					c15.142,1.102,35.513,14.59,37.99,39.367c0,0-9.279,26.398-50.928,15.689c-24.088-6.193-34.412-27.115-34.412-27.115
					s3.992-9.223,12.389-16.379c0,0,7.517,1.381,17.253,10.92c9.177,8.994,14.68,10.276,19.772,6.974
					c5.094-3.306,9.361-9.636,4.268-17.481C187.615,342.587,174.126,338.321,162.701,342.037z M142.423,405.628
					c0,0,11.699,21.061,35.374,21.061c23.676,0,34.962-13.488,40.606-22.851c0,0-10.736,12.663-40.33,12.663
					C152.608,416.501,142.423,405.628,142.423,405.628z"/>
			</g>
		</g>
	</g>
	
		<radialGradient id="SVGID_27_" cx="380.6924" cy="-642.1108" r="57.8992" gradientTransform="matrix(1 0 0 -0.1356 -201 339.1722)" gradientUnits="userSpaceOnUse">
		<stop  offset="0.0242" style="stop-color:#03306E"/>
		<stop  offset="1" style="stop-color:#FEFEFE;stop-opacity:0"/>
	</radialGradient>
	<ellipse fill="url(#SVGID_27_)" cx="179.692" cy="426.243" rx="59.216" ry="7.852"/>
	<g>
		
			<linearGradient id="SVGID_28_" gradientUnits="userSpaceOnUse" x1="462.7578" y1="38.3623" x2="462.7578" y2="72.7131" gradientTransform="matrix(1 0 0 -1 -201 433.5713)">
			<stop  offset="0" style="stop-color:#032E6C"/>
			<stop  offset="1" style="stop-color:#00A6FF"/>
		</linearGradient>
		<path fill="url(#SVGID_28_)" d="M240.346,369.381v-0.563c0-2.498,0.831-4.633,2.495-6.4c1.663-1.771,3.69-2.654,6.079-2.654
			l25.675,0.063l8.574-0.063v9.617h-30.257h-2.404H240.346L240.346,369.381z M277.181,386.245h5.988v9.869h-8.574h-25.675
			c-2.389,0-4.416-0.885-6.079-2.656c-1.664-1.768-2.495-3.902-2.495-6.4v-13.553h42.823v8.617h-36.019v4.123h5.716h17.873H277.181
			L277.181,386.245z"/>
		
			<linearGradient id="SVGID_29_" gradientUnits="userSpaceOnUse" x1="497.9063" y1="38.3584" x2="497.9063" y2="72.7192" gradientTransform="matrix(1 0 0 -1 -201 433.5713)">
			<stop  offset="0" style="stop-color:#032E6C"/>
			<stop  offset="1" style="stop-color:#00A6FF"/>
		</linearGradient>
		<path fill="url(#SVGID_29_)" d="M289.385,380.86v-6.018h15.041v6.018h-12.696H289.385z"/>
		
			<linearGradient id="SVGID_30_" gradientUnits="userSpaceOnUse" x1="523.9795" y1="38.3628" x2="523.9795" y2="72.7146" gradientTransform="matrix(1 0 0 -1 -201 433.5713)">
			<stop  offset="0" style="stop-color:#032E6C"/>
			<stop  offset="1" style="stop-color:#00A6FF"/>
		</linearGradient>
		<path fill="url(#SVGID_30_)" d="M308.035,371.965v-0.392c0-1.744,0.58-3.232,1.74-4.468c1.16-1.236,2.576-1.854,4.244-1.854
			l17.922,0.044l5.982-0.044v6.714h-21.117h-1.68H308.035z M308.035,383.911v6.714h5.984l17.922-0.044
			c1.709,0.029,3.135-0.516,4.273-1.635c1.141-1.117,1.709-2.797,1.709-5.035v-2.876c0-2.209-0.502-3.765-1.502-4.665
			c-1.004-0.902-2.508-1.354-4.514-1.354h-19.125h-4.748c0.041,1.978,0.59,3.461,1.646,4.447c1.055,0.99,2.488,1.514,4.307,1.57
			h18.996v2.876L308.035,383.911L308.035,383.911z"/>
		
			<linearGradient id="SVGID_31_" gradientUnits="userSpaceOnUse" x1="557.2578" y1="38.3628" x2="557.2578" y2="72.7146" gradientTransform="matrix(1 0 0 -1 -201 433.5713)">
			<stop  offset="0" style="stop-color:#032E6C"/>
			<stop  offset="1" style="stop-color:#00A6FF"/>
		</linearGradient>
		<path fill="url(#SVGID_31_)" d="M341.313,371.965v-0.392c0-1.744,0.58-3.232,1.742-4.468c1.16-1.236,2.574-1.854,4.242-1.854
			l17.922,0.044l5.982-0.044v6.714h-21.117h-1.68H341.313z M367.023,383.737h4.18v6.888h-5.984h-17.922
			c-1.668,0-3.082-0.617-4.24-1.854c-1.162-1.232-1.742-2.724-1.742-4.467v-9.46h29.889v6.017h-25.139v2.877h3.986h12.477H367.023
			L367.023,383.737z"/>
		
			<linearGradient id="SVGID_32_" gradientUnits="userSpaceOnUse" x1="590.5371" y1="38.3628" x2="590.5371" y2="72.7146" gradientTransform="matrix(1 0 0 -1 -201 433.5713)">
			<stop  offset="0" style="stop-color:#032E6C"/>
			<stop  offset="1" style="stop-color:#00A6FF"/>
		</linearGradient>
		<path fill="url(#SVGID_32_)" d="M379.34,390.625h-4.748v-18.659v-6.714h5.984l17.92,0.044c1.668,0,3.084,0.619,4.244,1.854
			c1.16,1.236,1.742,2.725,1.742,4.469v12.688v6.32h-4.75l0.031-10.462v-4.883c-0.146-0.873-0.592-1.644-1.332-2.312
			c-0.736-0.669-1.666-1.004-2.783-1.004h-12.287h-4.084l0.063,8.284v3.487V390.625L379.34,390.625z"/>
		
			<linearGradient id="SVGID_33_" gradientUnits="userSpaceOnUse" x1="623.8145" y1="38.3628" x2="623.8145" y2="72.7146" gradientTransform="matrix(1 0 0 -1 -201 433.5713)">
			<stop  offset="0" style="stop-color:#032E6C"/>
			<stop  offset="1" style="stop-color:#00A6FF"/>
		</linearGradient>
		<path fill="url(#SVGID_33_)" d="M407.871,371.965v-0.392c0-1.744,0.578-3.232,1.74-4.468c1.16-1.236,2.576-1.854,4.244-1.854
			l17.92,0.044l5.984-0.044v6.714h-21.121h-1.678H407.871z M407.871,383.911v6.714h5.984l17.92-0.044
			c1.711,0.029,3.135-0.516,4.275-1.635c1.139-1.117,1.709-2.797,1.709-5.035v-2.876c0-2.209-0.502-3.765-1.504-4.665
			c-1.004-0.902-2.508-1.354-4.512-1.354h-19.127h-4.748c0.041,1.978,0.59,3.461,1.646,4.447c1.055,0.99,2.49,1.514,4.307,1.57
			h18.998v2.876L407.871,383.911L407.871,383.911z"/>
		
			<linearGradient id="SVGID_34_" gradientUnits="userSpaceOnUse" x1="657.0938" y1="38.3628" x2="657.0938" y2="72.7146" gradientTransform="matrix(1 0 0 -1 -201 433.5713)">
			<stop  offset="0" style="stop-color:#032E6C"/>
			<stop  offset="1" style="stop-color:#00A6FF"/>
		</linearGradient>
		<path fill="url(#SVGID_34_)" d="M441.148,371.965v-0.392c0-1.744,0.578-3.232,1.74-4.468c1.16-1.236,2.574-1.854,4.244-1.854
			l17.92,0.044l5.984-0.044v6.714H449.92h-1.68H441.148z M466.859,383.737h4.18v6.888h-5.986h-17.92
			c-1.668,0-3.084-0.617-4.244-1.854c-1.16-1.232-1.738-2.724-1.738-4.467v-9.46h29.889v6.017h-25.141v2.877h3.988h12.477H466.859
			L466.859,383.737z"/>
	</g>
	<g>
		<g>
			<path fill="#00A6FF" d="M283.444,396.366h-34.525c-2.458,0-4.571-0.924-6.279-2.742c-1.705-1.813-2.569-4.027-2.569-6.59v-13.828
				h43.374v9.169h-36.019v3.571h36.019L283.444,396.366L283.444,396.366z M240.623,373.756v13.277c0,2.416,0.814,4.506,2.419,6.212
				c1.601,1.705,3.578,2.569,5.878,2.569h33.974v-9.318h-36.019v-4.673h36.019v-8.067H240.623L240.623,373.756z M283.444,369.634
				H240.07v-0.838c0-2.562,0.865-4.776,2.569-6.59c1.709-1.819,3.822-2.742,6.279-2.742l25.677,0.063l8.848-0.066L283.444,369.634
				L283.444,369.634z M240.623,369.083h42.271v-9.064l-8.296,0.062l-25.679-0.063c-2.298,0-4.275,0.864-5.877,2.569
				c-1.605,1.707-2.419,3.796-2.419,6.212V369.083L240.623,369.083z"/>
		</g>
		<g>
			<path fill="#00A6FF" d="M304.703,381.112H289.11v-6.567h15.593V381.112z M289.662,380.561h14.489v-5.465h-14.489V380.561z"/>
		</g>
		<g>
			<path fill="#00A6FF" d="M314.021,390.876h-6.26v-7.265h24.949v-2.325h-18.723c-1.885-0.06-3.395-0.611-4.494-1.644
				c-1.107-1.035-1.689-2.598-1.732-4.645l-0.006-0.281h24.154c2.064,0,3.645,0.479,4.695,1.424c1.061,0.951,1.598,2.59,1.598,4.869
				v2.877c0,2.307-0.605,4.065-1.793,5.231c-1.158,1.138-2.617,1.714-4.34,1.714l-0.133-0.001L314.021,390.876z M308.313,390.326
				h5.707l17.922-0.044l0.131,0.001c1.57,0,2.9-0.522,3.951-1.558c1.08-1.058,1.627-2.686,1.627-4.838v-2.877
				c0-2.115-0.475-3.617-1.412-4.46c-0.945-0.851-2.4-1.282-4.328-1.282h-23.59c0.084,1.754,0.605,3.09,1.551,3.973
				c1,0.938,2.389,1.439,4.127,1.494h19.264v3.429h-24.949V390.326z M338.203,372.218h-30.441v-0.667
				c0-1.81,0.609-3.376,1.814-4.656c1.209-1.287,2.703-1.94,4.443-1.94l17.922,0.044l6.262-0.046V372.218z M308.313,371.667h29.338
				v-6.16l-5.705,0.042l-17.926-0.045c-1.58,0-2.939,0.595-4.041,1.769c-1.105,1.176-1.666,2.615-1.666,4.279V371.667
				L308.313,371.667z"/>
		</g>
		<g>
			<path fill="#00A6FF" d="M371.479,390.876h-24.18c-1.74,0-3.234-0.651-4.443-1.94c-1.205-1.279-1.816-2.847-1.816-4.656v-9.734
				h30.439v6.566H346.34v2.326h25.139V390.876z M341.59,375.096v9.184c0,1.666,0.561,3.104,1.666,4.279
				c1.102,1.172,2.461,1.768,4.043,1.768h23.629v-6.336h-25.139v-3.43h25.139v-5.465H341.59z M371.479,372.218h-30.439v-0.667
				c0-1.81,0.611-3.376,1.816-4.656c1.209-1.287,2.703-1.94,4.443-1.94l17.922,0.044l6.258-0.046V372.218z M341.59,371.667h29.338
				v-6.16l-5.705,0.042l-17.926-0.045c-1.58,0-2.939,0.595-4.039,1.769c-1.107,1.176-1.668,2.615-1.668,4.279V371.667z"/>
		</g>
		<g>
			<path fill="#00A6FF" d="M404.758,390.876h-5.301l0.031-15.62c-0.131-0.76-0.549-1.482-1.238-2.105
				c-0.684-0.618-1.559-0.933-2.602-0.933h-16.094l0.063,11.495v7.163h-5.301v-25.923h6.26l17.922,0.044
				c1.738,0,3.234,0.651,4.443,1.938c1.205,1.285,1.814,2.851,1.814,4.657v19.283H404.758z M400.01,390.326h4.197v-18.731
				c0-1.662-0.563-3.103-1.666-4.279c-1.104-1.172-2.463-1.767-4.043-1.767l-23.631-0.045v24.822h4.197v-10.101L379,371.667h16.648
				c1.184,0,2.184,0.361,2.971,1.075c0.783,0.708,1.26,1.539,1.418,2.469l0.002,4.929L400.01,390.326z"/>
		</g>
		<g>
			<path fill="#00A6FF" d="M413.855,390.876h-6.262v-7.265h24.951v-2.325h-18.723c-1.885-0.06-3.395-0.611-4.494-1.644
				c-1.107-1.035-1.689-2.598-1.734-4.645l-0.006-0.281h24.158c2.064,0,3.645,0.479,4.693,1.424c1.061,0.95,1.598,2.59,1.598,4.869
				v2.877c0,2.307-0.605,4.064-1.793,5.231c-1.158,1.138-2.619,1.714-4.338,1.714l-0.137-0.001L413.855,390.876z M408.146,390.326
				h5.709l17.922-0.044l0.131,0.001c1.568,0,2.898-0.522,3.951-1.558c1.08-1.06,1.627-2.687,1.627-4.838v-2.877
				c0-2.117-0.475-3.617-1.412-4.46c-0.945-0.851-2.4-1.282-4.326-1.282h-23.592c0.086,1.754,0.605,3.09,1.551,3.973
				c1,0.938,2.389,1.439,4.127,1.494h19.264v3.429h-24.949v6.162H408.146z M438.037,372.218h-30.441v-0.667
				c0-1.81,0.611-3.376,1.816-4.656c1.209-1.287,2.703-1.94,4.443-1.94l17.922,0.044l6.26-0.046V372.218z M408.146,371.667h29.34
				v-6.16l-5.707,0.042l-17.924-0.045c-1.58,0-2.939,0.595-4.041,1.769c-1.107,1.176-1.668,2.615-1.668,4.279V371.667z"/>
		</g>
		<g>
			<path fill="#00A6FF" d="M471.314,390.876h-24.182c-1.74,0-3.234-0.651-4.443-1.94c-1.205-1.277-1.816-2.846-1.816-4.656v-9.734
				h30.441v6.566h-25.143v2.326h25.143V390.876z M441.424,375.096v9.184c0,1.666,0.563,3.105,1.668,4.279
				c1.102,1.172,2.461,1.768,4.043,1.768h23.629v-6.336h-25.141v-3.43h25.141v-5.465H441.424z M471.314,372.218h-30.441v-0.667
				c0-1.811,0.611-3.377,1.816-4.656c1.209-1.287,2.703-1.94,4.443-1.94l17.922,0.044l6.26-0.046V372.218z M441.424,371.667h29.34
				v-6.16l-5.707,0.042l-17.922-0.045c-1.582,0-2.941,0.595-4.043,1.769c-1.105,1.176-1.668,2.615-1.668,4.279V371.667z"/>
		</g>
	</g>
	<g>
		<g>
			<path fill="#1A1A1A" d="M311.213,404.509h-2.682v-7.653v-2.754h2.682v2.754V398v2.254V404.509z"/>
			<path fill="#1A1A1A" d="M322.889,404.509h-2.682v-7.653h-3.04h-4.005v-2.754h3.379l10.121,0.02l3.379-0.02v2.754h-7.152V404.509
				L322.889,404.509z"/>
			<path fill="#1A1A1A" d="M342.684,396.694c0-0.715,0.326-1.325,0.982-1.832c0.654-0.508,1.454-0.76,2.396-0.76l10.12,0.019
				l3.379-0.019v2.754h-11.927h-2.271v1.25h10.8c1.133,0,1.982,0.187,2.549,0.556c0.566,0.368,0.85,1.008,0.85,1.912v1.182
				c0,0.918-0.321,1.606-0.965,2.063c-0.645,0.459-1.455,0.689-2.434,0.689h-10.103h-3.379v-2.754h14.089v-1.182h-10.729
				c-1.024-0.023-1.835-0.238-2.433-0.643c-0.596-0.406-0.904-1.014-0.93-1.824v-0.717v-0.695H342.684z"/>
			<path fill="#1A1A1A" d="M361.476,401.916v-5.222c0-0.715,0.328-1.325,0.983-1.832c0.655-0.508,1.453-0.76,2.396-0.76
				l10.119,0.019c0.942,0,1.741,0.253,2.396,0.758c0.656,0.508,0.982,1.119,0.982,1.832v5.205c0,0.716-0.326,1.327-0.982,1.833
				c-0.655,0.508-1.454,0.761-2.396,0.761h-10.119c-0.942,0-1.74-0.253-2.396-0.761
				C361.803,403.243,361.476,402.631,361.476,401.916z M375.69,400.216v-2.002c-0.084-0.356-0.334-0.674-0.752-0.946
				c-0.418-0.274-0.941-0.412-1.574-0.412h-6.938c-0.631,0-1.162,0.138-1.59,0.412c-0.43,0.272-0.656,0.602-0.68,0.982v2.003
				c0,0.38,0.214,0.715,0.643,1.001c0.43,0.286,0.967,0.428,1.609,0.428h6.955c0.632,0,1.177-0.145,1.637-0.438
				C375.461,400.954,375.69,400.61,375.69,400.216z"/>
			<path fill="#1A1A1A" d="M394.787,401.682h2.36v2.827h-3.381h-10.119c-0.941,0-1.742-0.253-2.396-0.761
				c-0.655-0.506-0.983-1.117-0.983-1.833v-5.222v-2.592h2.683v4.147v2.003c0,0.38,0.214,0.715,0.646,1.001
				c0.426,0.286,0.963,0.429,1.607,0.429h7.045H394.787L394.787,401.682z"/>
			<path fill="#1A1A1A" d="M413.276,400.216v-2.002l-0.02-4.112h2.682v2.608v5.205c0,0.716-0.328,1.327-0.981,1.833
				c-0.656,0.508-1.456,0.761-2.396,0.761H402.44c-0.941,0-1.74-0.253-2.396-0.761c-0.655-0.506-0.983-1.117-0.983-1.833v-7.813
				h2.682v6.151c0,0.38,0.215,0.715,0.645,1.001c0.428,0.286,0.965,0.428,1.607,0.428h7.047c0.57,0,1.087-0.145,1.546-0.438
				C413.045,400.954,413.276,400.61,413.276,400.216z"/>
			<path fill="#1A1A1A" d="M427.579,404.509h-2.682v-7.653h-3.041h-4.004v-2.754h3.379l10.121,0.02l3.379-0.02v2.754h-7.152V404.509
				L427.579,404.509z"/>
			<path fill="#1A1A1A" d="M439.327,404.509h-2.684v-7.653v-2.754h2.684v2.754V398v2.254V404.509z"/>
			<path fill="#1A1A1A" d="M441.276,401.916v-5.222c0-0.715,0.328-1.325,0.982-1.832c0.655-0.508,1.453-0.76,2.396-0.76l10.12,0.019
				c0.939,0,1.739,0.253,2.396,0.758c0.656,0.508,0.984,1.119,0.984,1.832v5.205c0,0.716-0.328,1.327-0.984,1.833
				c-0.655,0.508-1.455,0.761-2.396,0.761h-10.12c-0.943,0-1.741-0.253-2.396-0.761
				C441.604,403.243,441.276,402.631,441.276,401.916z M455.491,400.216v-2.002c-0.083-0.356-0.334-0.674-0.752-0.946
				c-0.417-0.274-0.941-0.412-1.573-0.412h-6.938c-0.633,0-1.161,0.138-1.592,0.412c-0.43,0.272-0.653,0.602-0.679,0.982v2.003
				c0,0.38,0.214,0.715,0.644,1.001s0.966,0.428,1.609,0.428h6.954c0.632,0,1.179-0.145,1.638-0.438
				C455.262,400.954,455.491,400.61,455.491,400.216z"/>
			<path fill="#1A1A1A" d="M474.266,401.682v-3.574v-4.006h2.684v7.813v2.594h-2.684l-11.479-7.653h-2.719v-2.754h2.754
				L474.266,401.682z M460.068,398.106v6.402h2.684v-3.828v-2.574H460.068z"/>
		</g>
		<g>
			<path fill="#1A1A1A" d="M485.729,395.835c0,0.271-0.095,0.502-0.284,0.69c-0.189,0.19-0.42,0.285-0.69,0.285h-2.348v1.713h-0.976
				v-2.688h3.222c0.029,0,0.056-0.01,0.072-0.026c0.021-0.02,0.028-0.041,0.028-0.068v-0.539c0-0.064-0.034-0.098-0.102-0.098
				h-3.222v-0.976h3.322c0.265,0,0.492,0.095,0.688,0.285c0.191,0.188,0.289,0.42,0.289,0.69V395.835L485.729,395.835z"/>
			<path fill="#1A1A1A" d="M491.127,394.128l-1.881,4.029c-0.067,0.141-0.164,0.25-0.289,0.325c-0.126,0.074-0.27,0.11-0.432,0.11
				c-0.166,0-0.312-0.034-0.436-0.106c-0.124-0.07-0.219-0.18-0.287-0.329l-1.875-4.029h1.123l1.388,2.968
				c0.018,0.041,0.047,0.063,0.087,0.063c0.047,0,0.075-0.021,0.086-0.063l1.392-2.968H491.127L491.127,394.128z"/>
			<path fill="#1A1A1A" d="M495.802,395.104h-4.395v-0.976h4.395V395.104z M494.095,398.524h-0.975v-2.933h0.975V398.524z"/>
			<path fill="#1A1A1A" d="M496.188,398.524h-0.976v-0.977h0.976V398.524z"/>
			<path fill="#1A1A1A" d="M485.345,404.622h-2.933c-0.271,0-0.501-0.096-0.689-0.285c-0.19-0.188-0.284-0.42-0.284-0.689v-3.42
				h0.975v3.317c0,0.028,0.01,0.056,0.028,0.074c0.019,0.018,0.041,0.026,0.068,0.026h2.835V404.622z"/>
			<path fill="#1A1A1A" d="M488.504,401.203h-4.395v-0.978h4.395V401.203z M486.797,404.622h-0.974v-2.934h0.974V404.622z"/>
			<path fill="#1A1A1A" d="M493.475,402.421c0,0.646-0.082,1.147-0.243,1.515c-0.203,0.457-0.528,0.687-0.978,0.687h-3.174v-4.396
				h3.174c0.469,0,0.801,0.229,0.997,0.686C493.399,401.262,493.475,401.764,493.475,402.421z M492.478,402.421
				c0-0.399-0.021-0.703-0.069-0.909c-0.047-0.207-0.131-0.31-0.254-0.31h-2.1v2.442h2.1c0.118,0,0.202-0.105,0.251-0.319
				S492.478,402.811,492.478,402.421z"/>
			<path fill="#1A1A1A" d="M495.319,404.622h-0.977v-0.977h0.977V404.622z"/>
		</g>
	</g>
</g>
</svg>
