<?xml version="1.0" encoding="UTF-8" ?>
<!DOCTYPE svg PUBLIC "-//W3C//DTD SVG 1.1//EN" "http://www.w3.org/Graphics/SVG/1.1/DTD/svg11.dtd">
<svg width="250pt" height="250pt" viewBox="0 0 250 250" version="1.1" xmlns="http://www.w3.org/2000/svg">
<path fill="#ffffff" stroke="#ffffff" stroke-width="0.09375" d=" M 0.0 0.0 L 250.0 0.0 L 250.0 250.0 L 0.0 250.0 L 0.0 0.0 Z" />
<path fill="#000000" stroke="#000000" stroke-width="0.09375" d=" M 18.4 7.6 C 20.3 7.2 22.1 7.0 24.0 7.0 C 91.7 7.1 159.4 7.0 227.1 7.0 C 232.2 7.0 237.5 9.3 240.2 13.7 C 242.5 16.6 242.9 20.4 243.0 24.0 C 242.9 91.7 243.0 159.4 243.0 227.1 C 243.0 232.2 240.7 237.4 236.3 240.2 C 233.4 242.5 229.6 242.9 226.0 243.0 C 158.3 242.9 90.6 243.0 22.9 243.0 C 17.8 243.0 12.5 240.7 9.7 236.3 C 7.5 233.4 7.1 229.6 7.0 226.0 C 7.1 158.3 7.0 90.6 7.0 22.9 C 6.8 16.0 11.6 9.1 18.4 7.6 Z" />
<path fill="#ffffff" stroke="#ffffff" stroke-width="0.09375" d=" M 16.9 15.9 C 18.9 14.3 21.5 14.0 24.0 13.9 C 91.3 13.9 158.7 13.9 226.1 13.9 C 228.9 13.9 232.2 14.5 234.0 16.9 C 235.7 18.8 236.0 21.5 236.1 23.9 C 236.1 51.3 236.0 78.7 236.1 106.1 C 236.7 112.1 232.7 117.2 230.8 122.7 C 225.3 123.3 219.9 124.5 214.6 126.3 C 205.3 118.1 196.0 109.9 186.7 101.6 C 180.7 105.3 174.9 109.4 169.4 113.8 C 174.0 125.3 178.6 136.9 183.2 148.4 C 179.7 152.7 176.7 157.4 174.3 162.4 C 161.9 163.2 149.5 163.9 137.2 164.6 C 135.5 171.5 134.2 178.5 133.5 185.5 C 144.9 190.5 156.4 195.3 167.8 200.2 C 168.3 205.8 169.5 211.2 171.4 216.4 C 165.6 223.0 159.8 229.5 154.0 236.0 C 144.7 236.1 135.4 236.1 126.1 236.1 C 124.2 229.7 121.8 223.6 119.4 217.5 C 109.1 219.1 98.9 220.7 88.7 222.2 C 86.4 217.8 83.8 213.4 81.0 209.3 C 87.2 201.1 93.4 192.8 99.7 184.6 C 94.7 178.5 89.4 172.7 83.9 167.1 C 75.0 172.4 66.2 177.8 57.4 183.2 C 53.5 179.9 49.5 176.9 45.3 174.2 C 47.9 164.2 50.5 154.2 53.1 144.2 C 46.2 140.4 39.1 137.1 31.9 134.0 C 25.9 142.2 19.9 150.3 13.9 158.5 C 14.0 113.6 13.9 68.8 13.9 23.9 C 13.9 21.0 14.5 17.8 16.9 15.9 Z" />
<path fill="#000000" stroke="#000000" stroke-width="0.09375" d=" M 80.3 21.9 C 86.2 20.4 92.1 19.3 98.2 18.7 C 102.1 28.0 106.1 37.3 110.2 46.6 C 114.5 47.0 118.7 48.0 122.8 49.4 C 130.4 42.7 137.9 35.9 145.4 29.2 C 150.6 32.4 155.6 35.8 160.3 39.6 C 156.5 49.0 152.8 58.4 149.1 67.8 C 151.8 71.2 154.1 74.8 156.0 78.7 C 166.1 79.3 176.2 79.9 186.3 80.4 C 187.8 86.3 188.8 92.3 189.4 98.3 C 180.2 102.3 170.8 106.3 161.6 110.3 C 161.1 114.6 160.2 118.8 158.8 122.9 C 165.5 130.5 172.2 138.0 179.0 145.6 C 175.9 150.8 172.3 155.7 168.6 160.4 C 159.2 156.7 149.8 152.9 140.4 149.2 C 137.0 151.9 133.3 154.3 129.5 156.2 C 128.9 166.3 128.3 176.4 127.7 186.4 C 121.9 187.9 115.9 189.0 109.9 189.6 C 105.9 180.3 101.9 171.0 97.9 161.7 C 93.6 161.3 89.3 160.3 85.3 158.9 C 77.7 165.7 70.1 172.4 62.6 179.1 C 57.4 176.0 52.5 172.5 47.7 168.7 C 51.5 159.3 55.2 149.9 59.0 140.5 C 56.3 137.2 53.9 133.5 52.0 129.6 C 41.9 129.0 31.8 128.5 21.7 127.9 C 20.3 122.0 19.2 116.0 18.6 110.0 C 27.8 106.0 37.1 102.0 46.4 98.0 C 46.9 93.7 47.8 89.5 49.2 85.4 C 42.5 77.8 35.8 70.3 29.1 62.7 C 32.2 57.5 35.7 52.6 39.4 47.9 C 48.9 51.6 58.2 55.4 67.6 59.1 C 71.0 56.4 74.7 54.0 78.6 52.1 C 79.1 42.0 79.7 32.0 80.3 21.9 Z" />
<path fill="#6a75d7" stroke="#6a75d7" stroke-width="0.09375" d=" M 85.8 26.5 C 88.7 25.8 91.6 25.3 94.6 24.9 C 98.4 33.9 102.3 42.9 106.2 51.8 C 112.3 52.5 118.4 53.8 124.2 55.8 C 131.5 49.3 138.8 42.8 146.0 36.4 C 148.5 38.0 151.0 39.7 153.4 41.5 C 149.7 50.6 146.1 59.6 142.5 68.7 C 146.5 73.5 149.8 78.7 152.5 84.3 C 162.2 84.8 171.9 85.4 181.7 85.9 C 182.3 88.9 182.8 91.8 183.2 94.7 C 174.3 98.6 165.3 102.4 156.4 106.3 C 155.8 112.4 154.4 118.5 152.4 124.3 C 158.8 131.6 165.3 138.9 171.8 146.2 C 170.2 148.7 168.5 151.1 166.7 153.5 C 157.6 149.9 148.6 146.3 139.5 142.7 C 134.7 146.6 129.5 149.9 123.9 152.7 C 123.4 162.4 122.8 172.1 122.3 181.8 C 119.4 182.5 116.4 183.0 113.5 183.4 C 109.6 174.4 105.8 165.5 101.9 156.5 C 95.7 155.9 89.7 154.5 83.8 152.5 C 76.6 159.0 69.3 165.5 62.0 172.0 C 59.5 170.4 57.0 168.7 54.7 166.8 C 58.3 157.8 61.9 148.7 65.5 139.7 C 61.6 134.8 58.2 129.7 55.6 124.1 C 45.8 123.5 36.1 122.9 26.3 122.4 C 25.7 119.5 25.2 116.6 24.8 113.6 C 33.7 109.7 42.7 105.9 51.6 102.0 C 52.3 95.9 53.6 89.8 55.7 84.0 C 49.2 76.7 42.7 69.4 36.2 62.1 C 37.8 59.6 39.5 57.2 41.3 54.8 C 50.4 58.4 59.5 62.1 68.5 65.6 C 73.3 61.7 78.5 58.4 84.1 55.7 C 84.7 46.0 85.2 36.2 85.8 26.5 Z" />
<path fill="#000000" stroke="#000000" stroke-width="0.09375" d=" M 97.3 71.2 C 113.8 67.4 131.9 78.3 136.3 94.6 C 141.2 110.0 133.1 128.0 118.4 134.6 C 106.6 140.4 91.4 138.2 81.7 129.3 C 71.8 120.8 67.9 106.3 71.9 93.9 C 75.5 82.5 85.6 73.4 97.3 71.2 Z" />
<path fill="#ffffff" stroke="#ffffff" stroke-width="0.09375" d=" M 98.5 76.8 C 106.7 75.2 115.7 77.3 122.0 82.9 C 127.9 87.8 131.6 95.3 131.9 103.0 C 132.3 111.1 128.9 119.3 122.8 124.8 C 117.0 130.2 108.8 132.8 100.9 131.9 C 93.2 131.1 85.9 126.8 81.4 120.5 C 76.0 113.2 74.6 103.2 77.8 94.7 C 81.0 85.6 89.1 78.6 98.5 76.8 Z" />
<path fill="#9cca15" stroke="#9cca15" stroke-width="0.09375" d=" M 176.3 115.7 C 179.5 113.2 182.8 110.9 186.2 108.8 C 195.2 116.8 204.2 124.8 213.2 132.8 C 220.2 130.3 227.4 128.7 234.8 127.9 C 235.1 127.2 235.7 125.9 236.0 125.2 C 236.0 134.2 236.0 143.2 236.0 152.2 C 224.3 152.8 213.0 158.6 205.9 167.9 C 200.7 174.4 197.7 182.6 197.3 190.9 C 196.4 204.4 203.0 218.0 214.0 225.9 C 219.5 230.1 226.1 232.2 232.7 233.8 C 230.4 235.2 227.8 236.2 225.0 236.0 C 203.9 236.0 182.8 236.0 161.7 236.0 C 167.0 229.9 172.4 223.9 177.8 217.8 C 175.3 210.8 173.7 203.6 172.9 196.2 C 161.9 191.4 150.8 186.7 139.8 182.0 C 140.2 178.0 140.9 174.0 141.8 170.1 C 153.8 169.4 165.8 168.6 177.8 167.9 C 181.1 161.3 185.1 155.0 189.7 149.2 C 185.3 138.1 180.8 126.9 176.3 115.7 Z" />
<path fill="#9cca15" stroke="#9cca15" stroke-width="0.09375" d=" M 16.9 164.1 C 22.6 156.4 28.1 148.8 33.7 141.2 C 38.1 143.0 42.3 144.9 46.4 147.2 C 43.9 157.0 41.3 166.8 38.8 176.6 C 45.1 180.8 51.1 185.3 56.9 190.2 C 65.6 184.9 74.2 179.6 82.9 174.4 C 86.2 177.7 89.3 181.2 92.3 184.8 C 86.2 192.9 80.1 201.0 74.0 209.1 C 78.2 215.3 82.1 221.8 85.6 228.5 C 95.6 227.0 105.7 225.4 115.7 223.9 C 117.3 227.9 118.8 231.9 120.0 236.0 C 100.9 236.0 81.7 236.0 62.5 236.0 C 52.2 215.9 34.7 199.6 14.0 190.7 C 14.0 182.3 14.0 173.9 14.0 165.5 C 15.3 165.6 16.3 165.2 16.9 164.1 Z" />
<path fill="#ffffff" stroke="#ffffff" stroke-width="0.09375" d=" M 206.0 178.8 C 211.1 166.9 223.2 158.6 236.1 158.0 C 236.1 181.3 236.1 204.6 236.1 227.9 C 224.4 227.5 213.3 220.6 207.7 210.4 C 202.1 201.0 201.5 188.8 206.0 178.8 Z" />
<path fill="#ffffff" stroke="#ffffff" stroke-width="0.09375" d=" M 13.9 197.0 C 31.6 205.1 46.6 219.0 56.1 236.1 C 44.7 236.0 33.3 236.2 21.9 235.9 C 17.7 235.9 14.1 232.2 14.0 228.0 C 13.8 217.6 14.0 207.3 13.9 197.0 Z" />
</svg>
