<?xml version="1.0" encoding="utf-8"?>
<!-- Generator: Adobe Illustrator 14.0.0, SVG Export Plug-In . SVG Version: 6.00 Build 43363)  -->
<!DOCTYPE svg PUBLIC "-//W3C//DTD SVG 1.1//EN" "http://www.w3.org/Graphics/SVG/1.1/DTD/svg11.dtd">
<svg version="1.1" id="Layer_1" xmlns="http://www.w3.org/2000/svg" xmlns:xlink="http://www.w3.org/1999/xlink" x="0px" y="0px"
	 width="567.691px" height="300px" viewBox="0 0 567.691 300" enable-background="new 0 0 567.691 300" xml:space="preserve">
<g id="Backgrounds">
	
		<linearGradient id="SVGID_1_" gradientUnits="userSpaceOnUse" x1="525.7732" y1="-804.6511" x2="525.7732" y2="-520.6074" gradientTransform="matrix(1 0 0 -1 -241.9272 -511.0337)">
		<stop  offset="0.264" style="stop-color:#606F90"/>
		<stop  offset="0.6236" style="stop-color:#7F8AA6"/>
		<stop  offset="1" style="stop-color:#949EB7"/>
	</linearGradient>
	<rect x="0" y="0" fill="url(#SVGID_1_)" stroke="#000000" width="567.691" height="300"/>
	
		<linearGradient id="SVGID_2_" gradientUnits="userSpaceOnUse" x1="525.7732" y1="-811.0334" x2="525.7732" y2="-651.075" gradientTransform="matrix(1 0 0 -1 -241.9272 -511.0337)">
		<stop  offset="0.6685" style="stop-color:#005D43"/>
		<stop  offset="0.8708" style="stop-color:#3F6D4F"/>
	</linearGradient>
	<path fill="url(#SVGID_2_)" stroke="#000000" d="M0,184.646V300h567.691V181.335c0,0-5.204,11.354-26.492,12.753
		c-21.289,1.4-43.05-7.073-43.05-7.073c-84.682-28.386-75.692-23.183-97.928-27.912c-22.234-4.729-43.051,10.881-63.865-1.894
		c-20.814-12.772-33.114-15.138-33.114-15.138c-45.889-8.042-73.801,10.408-73.801,10.408s-42.104,28.855-77.584,37.847
		c-35.48,8.987-57.012-0.946-57.012-0.946C14.18,151.531,0,184.646,0,184.646"/>
	
		<linearGradient id="SVGID_3_" gradientUnits="userSpaceOnUse" x1="525.7732" y1="-811.0334" x2="525.7732" y2="-705.5349" gradientTransform="matrix(1 0 0 -1 -241.9272 -511.0337)">
		<stop  offset="0.7921" style="stop-color:#3F6D4F"/>
		<stop  offset="1" style="stop-color:#005D43"/>
	</linearGradient>
	<path fill="url(#SVGID_3_)" stroke="#000000" d="M0,199.671V300h567.691V199.671c0,0-37.632-1.279-73.85,4.266
		c-36.213,5.545-86.54,5.557-96.416,5.131c-9.876-0.428-43.739-4.697-77.604-11.529s-82.775,0-82.775,0
		c-58.792,14.517-95.006,14.941-113.819,15.797C104.412,214.188,0,199.671,0,199.671"/>
	
		<linearGradient id="SVGID_4_" gradientUnits="userSpaceOnUse" x1="525.7722" y1="-742.4363" x2="525.7722" y2="-809.6135" gradientTransform="matrix(1 0 0 -1 -241.9272 -511.0337)">
		<stop  offset="0" style="stop-color:#27AB5F"/>
		<stop  offset="1" style="stop-color:#00863D"/>
	</linearGradient>
	<path fill="url(#SVGID_4_)" stroke="#000000" d="M0,222.889V300h567.691v-79.004c-32.169,5.677-228.97,12.773-292.361,9.937
		C211.938,228.093,0,222.889,0,222.889"/>
</g>
<g id="Clouds">
	<path fill="#A5ADC1" d="M438.388,63.805c-0.021,0-0.036,0.001-0.057,0.001c0.021-0.358,0.056-0.714,0.056-1.077
		c0-9.34-7.499-16.913-16.75-16.913c-9.248,0-16.748,7.573-16.748,16.913c0,3.642,1.148,7.005,3.09,9.765
		c-3.135-0.886-6.598-1.38-10.24-1.38c-14.099,0-25.527,7.364-25.527,16.446c0,9.083,11.431,16.445,25.527,16.445
		c6.496,0,12.423-1.565,16.934-4.139c5.071,6.322,13.803,10.499,23.721,10.499c15.677,0,28.387-10.423,28.387-23.28
		C466.776,74.228,454.065,63.805,438.388,63.805"/>
	<path fill="#B0B7C9" d="M182.017,61.913c-5.967,0-11.362,2.273-15.254,5.939c-3.919-1.34-8.268-2.094-12.854-2.094
		c-3.152,0-6.193,0.356-9.061,1.012c-0.765-13.015-9.285-23.273-19.692-23.273c-9.369,0-17.209,8.314-19.24,19.466
		c-3.035-0.681-6.249-1.05-9.578-1.05c-18.504,0-33.501,11.272-33.501,25.177c0,13.905,14.999,25.177,33.501,25.177
		c12.732,0,23.808-5.339,29.474-13.2c4.977,7.909,15.685,13.383,28.098,13.383c10.854,0,20.401-4.186,25.959-10.524
		c0.705,0.065,1.423,0.102,2.147,0.102c11.86,0,21.479-8.98,21.479-20.057C203.494,70.892,193.878,61.913,182.017,61.913"/>
	<path fill="none" stroke="#3A3A3A" d="M182.017,61.913c-5.967,0-11.362,2.273-15.254,5.939c-3.919-1.34-8.268-2.094-12.854-2.094
		c-3.152,0-6.193,0.356-9.061,1.012c-0.765-13.015-9.285-23.273-19.692-23.273c-9.369,0-17.209,8.314-19.24,19.466
		c-3.035-0.681-6.249-1.05-9.578-1.05c-18.504,0-33.501,11.272-33.501,25.177c0,13.905,14.999,25.177,33.501,25.177
		c12.732,0,23.808-5.339,29.474-13.2c4.977,7.909,15.685,13.383,28.098,13.383c10.854,0,20.401-4.186,25.959-10.524
		c0.705,0.065,1.423,0.102,2.147,0.102c11.86,0,21.479-8.98,21.479-20.057C203.494,70.892,193.878,61.913,182.017,61.913z"/>
	<path fill="#E1E4EB" d="M142.326,76.603c0,0,19.237-7.859,33.588,8.54c0,0,2.838-17.188,21.13-12.458
		c0,0-13.246-16.313-27.358-0.823c0,0-13.011-6.273-27.359-1.699"/>
	<path fill="#EAEBEF" d="M141.538,64.643c0,0-0.096-0.16-0.278-0.443c-2.008-3.078-14.661-20.675-31.418-3.341
		c0,0,4.573-15.612,16.873-13.563c0,0,12.27,0.941,14.729,17.187"/>
	<path fill="#E6E7EF" d="M106.767,73.946c-32.878-5.834-40.921,14.587-40.921,14.587s1.655-28.621,40.921-21.998V73.946z"/>
	<path fill="none" stroke="#232323" d="M438.388,63.805c-0.021,0-0.036,0.001-0.057,0.001c0.021-0.358,0.056-0.714,0.056-1.077
		c0-9.34-7.499-16.913-16.75-16.913c-9.248,0-16.748,7.573-16.748,16.913c0,3.642,1.148,7.005,3.09,9.765
		c-3.135-0.886-6.598-1.38-10.24-1.38c-14.099,0-25.527,7.364-25.527,16.446c0,9.083,11.431,16.445,25.527,16.445
		c6.496,0,12.423-1.565,16.934-4.139c5.071,6.322,13.803,10.499,23.721,10.499c15.677,0,28.387-10.423,28.387-23.28
		C466.776,74.228,454.065,63.805,438.388,63.805z"/>
	<path fill="#DFE1E8" d="M417.343,86.092c-24.602-14.666-40.686,3.464-40.686,3.464s0.313-15.14,17.814-15.612
		C411.976,73.47,417.343,86.092,417.343,86.092"/>
	<path fill="#E0E3E9" d="M461.81,82.935c0,0-1.896-15.771-24.283-16.243c0,0,0.16,4.574-2.048,8.122
		C435.479,74.813,453.139,72.37,461.81,82.935"/>
	<path fill="#DFE1E8" d="M420.653,49.031c14.504-1.107,14.828,11.827,14.828,11.827c-19.72-13.88-26.965,3.785-26.965,3.785
		S406.151,50.138,420.653,49.031"/>
</g>
<g id="Flowers">
	<path fill="none" stroke="#000000" d="M181.452,244.622c-0.562,4.112-0.079,9.016-0.079,13.274"/>
	<path fill="none" stroke="#111111" d="M153.984,263.938c1.203,3.051,1.854,6.299,2.008,9.61c0.08,1.792-0.01,3.646-0.509,5.273
		c-0.441,1.438-1.438,2.863-1.679,4.354"/>
	<path fill="none" stroke="#000000" d="M155.307,238.473c-0.562,4.11-0.078,9.014-0.078,13.272"/>
	<path fill="none" stroke="#2F8417" d="M175.83,266.096c-0.933-0.324-1.994-0.693-2.854-1.171c0.232-0.835,0.854-1.466,0.713-2.364
		c-1.697-0.127-3.112,0.871-4.743,1.196c-0.385,0.076-1.653,0.435-2.028,0.216c-1.438-0.85-0.221-2.334,0.71-2.939
		c0.639-0.416,1.593-0.383,2.191-0.917c0.688-0.611,0.684-1.706,0.496-2.511c0.917-0.35,1.604-1.334,2.646-1.489
		c1.167-0.177,1.765,0.911,3.058,0.493c0.574-0.188,1.025-0.512,1.619-0.602c0.303-0.045,0.927,0.149,1.188,0.004
		c1.499-0.855-3.835-2.517-4.355-2.914c0.228-0.394,0.842-0.455,1.253-0.611c1.169-0.441,2.267-1.002,3.395-1.541
		c0.887-0.428,1.027-0.473,1.784,0.007c0.635,0.401,1.704,0.917,2.119,1.479c0.389,0.525,0.334,1.226,1.083,1.443
		c-0.688-1.046-0.86-2.964-2.063-3.564c1.884-0.371,4.119,0.344,5.526,1.658c0.006-0.797,0.125-1.48,0.495-2.182
		c1.566,0.321,0.646,3.881,0.141,4.791c1.646,0.063,2.563-2.398,4.1-2.028c0.773,0.188,1.086,1.273,1.813,1.472
		c0.685,0.183,1.226-0.474,1.893-0.461"/>
	<path fill="none" stroke="#2F8417" d="M143.807,281.391c0.746,0.537,1.116,1.764,1.465,2.575c0.179,0.415,0.662,2.489,1.074,2.696
		c1.277,0.646,3.267-2.795,3.756-3.521c0.245,1.227,0.071,4.041,1.887,3.198c0.385-0.179,0.701-0.395,1.062-0.595
		c0.661-0.372,1.178-0.767,1.766-1.283c0.689-0.611,1.474-1.672,2.311-2.048c0.388,0.577,0.688,1.521,1.396,1.303
		c0.997-0.311,1.399-2.079,2.456-2.479c0.566,1.08,2.001,2.473,2.7,3.23"/>
	<path fill="none" stroke="#111111" d="M127.573,256.87c0.521,1.7,0.805,3.512,0.868,5.356c0.035,1.002-0.004,2.03-0.218,2.939
		c-0.19,0.8-0.621,1.598-0.729,2.425"/>
	<path fill="none" stroke="#2F8417" d="M114.169,263.1c0.727-0.5,2.063-1.238,2.999-0.934c1.517,0.492,2.447,3.378,2.688,4.709
		c0.74,0.075,2.036-0.599,2.68-0.217c0.504,0.294,0.896,1.891,1.037,2.432c0.754,0.024,1.184-0.242,1.859-0.453
		c0.389-0.119,0.229-0.271,0.672-0.193c0.709,0.123,1.122,1.393,1.86,1.437c0.84,0.053,1.394-1.908,2.042-2.468
		c0.438-0.377,0.802-0.485,1.455-0.365c0.649,0.123,1.304,0.982,1.95,0.953c0.745-0.035,1.115-1.317,1.985-1.18
		c0.523,0.084,1.24,1.07,1.604,1.381c0.612,0.521,1.541,1.359,2.396,1.439c1.084,0.1,2.251-1.23,2.922-1.963"/>
	<path fill="none" stroke="#2F8417" d="M136.404,252.456c0.386,1.038,0.885,2.622,1.599,3.463c0.606,0.715,1.214,0.495,2.066,0.223
		c0.723-0.231,1.405-0.611,2.188-0.533c0.905,0.093,1.396,0.884,2.197,1.05c1.279,0.268,2.779-1.994,3.372-2.866
		c0.375-0.555,0.066-0.54,0.688-0.598c0.826-0.077,2.253,0.99,3.005,1.359c1.173,0.57,1.087,0.965,1.764,1.91
		c0.369,0.514,1.048,0.704,1.34,1.272"/>
	<g>
		<path fill="#FFFFFF" stroke="#4C4C4C" d="M123.988,249.303c-0.256,0.418-1.484,2.008-1.724,2.403
			c-0.557,0.923-1.227,4.441,0.055,5.378c1.514,1.104,4.288,0.639,4.804,0.18c0.816-0.729,0.634-1.992,0.685-3.033
			c0.044-0.938,0.045-1.951-0.229-2.856c-0.202-0.675-0.534-1.937-1.263-2.188c1.045-0.086,2.701,4.248,5.379,4.688
			c1.801,0.297,2.34-0.137,3.341-1.139c0.681-0.68,1.01-1.608,0.9-2.766c-0.306-3.258-4.104-3.809-5.953-3.979
			c-0.908-0.085-1.837-0.099-2.482,0.631c0.749-1.523,5.392-2.343,5.716-6.131c0.221-2.566-2.743-4.255-4.995-3.025
			c-1.56,0.854-1.941,3.188-2.021,4.822c-0.046,0.96-0.027,2.147-0.396,2.996c-0.142-6.353-3.723-6.685-4.668-6.636
			c-2.172,0.121-3.335,2.969-2.639,4.666c0.372,0.899,1.471,2.857,4.561,4.086c-3.696,0-5.743-0.654-6.919,0.521
			c-1.656,1.656-0.739,4.895,0.415,5.322C119.997,254.521,123.979,249.357,123.988,249.303z"/>
		<path fill="#FFA931" stroke="#4C4C4C" d="M128.154,247.646c0,1.244-1.271,2.246-2.842,2.246c-1.567,0-2.841-1.004-2.841-2.246
			c0-1.24,1.272-2.248,2.841-2.248C126.882,245.398,128.154,246.404,128.154,247.646"/>
	</g>
	<g>
		<path fill="#FFFFFF" stroke="#4C4C4C" d="M153.977,235.497c-0.305,0.205-1.626,0.907-1.911,1.104
			c-0.66,0.455-2.192,2.642-1.61,3.668c0.688,1.211,2.716,1.75,3.207,1.598c0.776-0.246,1.042-1.163,1.395-1.852
			c0.318-0.625,0.631-1.316,0.724-2.011c0.067-0.521,0.23-1.479-0.187-1.873c0.735,0.265,0.53,3.716,2.214,4.833
			c1.132,0.756,1.631,0.625,2.62,0.253c0.67-0.255,1.18-0.782,1.46-1.598c0.791-2.309-1.618-3.846-2.822-4.529
			c-0.591-0.337-1.218-0.633-1.88-0.336c0.979-0.809,4.378,0.063,5.764-2.409c0.937-1.678-0.562-3.73-2.467-3.589
			c-1.32,0.101-2.294,1.567-2.85,2.658c-0.325,0.636-0.68,1.447-1.188,1.91c1.851-4.354-0.479-5.682-1.136-5.934
			c-1.514-0.586-3.175,0.99-3.222,2.354c-0.024,0.729,0.121,2.396,1.843,4.175c-2.511-1.133-3.7-2.207-4.856-1.771
			c-1.635,0.617-2.003,3.097-1.354,3.742C149.667,237.818,153.953,235.532,153.977,235.497z"/>
		<path fill="#FFA931" stroke="#4C4C4C" d="M157.314,235.65c-0.379,0.843-1.556,1.137-2.621,0.654
			c-1.064-0.484-1.621-1.559-1.241-2.396c0.379-0.846,1.554-1.137,2.618-0.654C157.139,233.734,157.694,234.811,157.314,235.65"/>
	</g>
	<g>
		<path fill="#FFFFFF" stroke="#4C4C4C" d="M178.04,240.602c-0.407,0.274-2.182,1.217-2.563,1.479
			c-0.886,0.612-2.942,3.545-2.161,4.923c0.926,1.627,3.646,2.347,4.304,2.142c1.044-0.326,1.398-1.56,1.871-2.481
			c0.428-0.841,0.847-1.763,0.968-2.699c0.095-0.695,0.311-1.986-0.251-2.514c0.986,0.354,0.714,4.985,2.973,6.487
			c1.518,1.011,2.188,0.838,3.513,0.336c0.899-0.34,1.585-1.051,1.96-2.147c1.062-3.099-2.173-5.162-3.789-6.081
			c-0.794-0.454-1.634-0.848-2.523-0.446c1.313-1.084,5.879,0.086,7.734-3.236c1.258-2.25-0.752-5.008-3.312-4.813
			c-1.771,0.137-3.08,2.106-3.823,3.563c-0.437,0.854-0.91,1.951-1.595,2.566c2.482-5.849-0.642-7.623-1.522-7.966
			c-2.029-0.784-4.261,1.331-4.323,3.165c-0.032,0.975,0.164,3.213,2.475,5.604c-3.37-1.521-4.966-2.961-6.521-2.375
			c-2.188,0.828-2.688,4.156-1.813,5.021C172.256,243.715,178.01,240.648,178.04,240.602z"/>
		<path fill="#FFA931" stroke="#4C4C4C" d="M182.52,240.807c-0.512,1.131-2.084,1.521-3.517,0.877
			c-1.43-0.646-2.175-2.084-1.665-3.217c0.512-1.128,2.083-1.521,3.515-0.878C182.285,238.234,183.03,239.676,182.52,240.807"/>
	</g>
	<g>
		<path fill="#FFFFFF" stroke="#4C4C4C" d="M151.44,260.889c-0.492,0.332-2.626,1.465-3.088,1.781
			c-1.064,0.737-3.547,4.272-2.604,5.934c1.114,1.959,4.393,2.826,5.185,2.58c1.258-0.395,1.687-1.873,2.253-2.99
			c0.516-1.01,1.02-2.123,1.166-3.252c0.111-0.842,0.373-2.393-0.301-3.026c1.188,0.425,0.858,6.006,3.578,7.815
			c1.832,1.22,2.633,1.008,4.231,0.406c1.083-0.41,1.909-1.269,2.361-2.588c1.278-3.729-2.617-6.217-4.563-7.32
			c-0.957-0.541-1.969-1.021-3.039-0.537c1.58-1.305,7.078,0.102,9.313-3.896c1.517-2.708-0.905-6.032-3.986-5.799
			c-2.136,0.163-3.711,2.54-4.605,4.291c-0.523,1.029-1.095,2.346-1.917,3.095c2.992-7.044-0.771-9.185-1.835-9.598
			c-2.442-0.946-5.135,1.602-5.208,3.811c-0.04,1.176,0.196,3.871,2.979,6.752c-4.057-1.834-5.979-3.568-7.854-2.863
			c-2.637,1-3.236,5.008-2.184,6.052C144.47,264.639,151.403,260.945,151.44,260.889z"/>
		<path fill="#FFA931" stroke="#4C4C4C" d="M156.834,261.137c-0.612,1.358-2.509,1.832-4.232,1.057
			c-1.723-0.777-2.622-2.514-2.006-3.877c0.613-1.361,2.51-1.836,4.233-1.059C156.552,258.037,157.45,259.771,156.834,261.137"/>
	</g>
</g>
<g id="Moon">
	<path fill="#E6E6E6" d="M301.275,27.406c4.729,3.979,7.729,9.878,7.729,16.469c0,11.979-9.897,21.692-22.108,21.692
		c-0.981,0-1.949-0.07-2.896-0.192c3.866,3.253,8.89,5.224,14.384,5.224c12.206,0,22.106-9.711,22.106-21.69
		C320.488,37.891,312.114,28.799,301.275,27.406"/>
	<path fill="none" stroke="#595959" d="M301.275,27.406c4.729,3.979,7.729,9.878,7.729,16.469c0,11.979-9.897,21.692-22.108,21.692
		c-0.981,0-1.949-0.07-2.896-0.192c3.866,3.253,8.89,5.224,14.384,5.224c12.206,0,22.106-9.711,22.106-21.69
		C320.488,37.891,312.114,28.799,301.275,27.406z"/>
</g>
<g id="Tree">
	<path fill="none" stroke="#232323" d="M437.476,253.165v9.876c0,0-0.532,2.838,4.555,2.365s8.456,0.055,8.456,0.055
		s3.075,0.773,2.011-3.604c-1.063-4.375-1.597-8.735-1.597-8.735"/>
	<path fill="#744C25" d="M437.476,253.165v9.876c0,0-0.532,2.838,4.555,2.365s8.456,0.055,8.456,0.055s3.075,0.773,2.011-3.604
		c-1.063-4.375-1.597-8.735-1.597-8.735"/>
	<path fill="#2D7958" d="M444.927,253.165c-55.824,0-39.503-10.183-39.503-10.183l-0.235,0.227
		c0.235-0.227,42.104-31.678,23.654-31.899c-18.45-0.229-11.354-6.791-11.354-6.791s26.256-33.486,16.085-31.899
		c-10.171,1.582-5.438-5.431-5.438-5.431l17.504-33.711l16.892,33.711c0,0,4.565,7.013-5.249,5.431
		c-9.813-1.584,15.52,31.899,15.52,31.899s6.848,6.563-10.953,6.791c-17.801,0.223,22.597,31.676,22.82,31.899
		C484.666,243.211,498.859,253.165,444.927,253.165"/>
	<path fill="#004D36" d="M442.325,249.064c0,0,0.021-0.224,0.044-0.637c0.317-4.988,2.159-37.549-3.595-37.841
		c-6.23-0.315-3.7-6.585-3.7-6.585l8.043-29.056c0,0-5.361,0.475-4.343-4.729c1.021-5.204,6.318-30.594,6.318-30.594l-12.702,27.124
		c0,0-3.785,3.626,3.945,2.839c7.726-0.789-10.098,31.064-12.302,33.433c-2.21,2.363-4.257,5.992,9.617,6.778
		c0,0,4.414,0.789,2.995,5.992c-1.42,5.204-23.811,30.277-23.811,30.277s-5.05,3.154,19.078,2.994h10.409v0.004H442.325z"/>
	<path fill="none" stroke="#383838" d="M444.927,253.165c-55.824,0-39.503-10.183-39.503-10.183l-0.235,0.227
		c0.235-0.227,42.104-31.678,23.654-31.899c-18.45-0.229-11.354-6.791-11.354-6.791s26.256-33.486,16.085-31.899
		c-10.171,1.582-5.438-5.431-5.438-5.431l17.504-33.711l16.892,33.711c0,0,4.565,7.013-5.249,5.431
		c-9.813-1.584,15.52,31.899,15.52,31.899s6.848,6.563-10.953,6.791c-17.801,0.223,22.597,31.676,22.82,31.899
		C484.666,243.211,498.859,253.165,444.927,253.165z"/>
</g>
</svg>
