<?xml version="1.0" encoding="UTF-8" standalone="no"?>
<!-- Created with Inkscape (http://www.inkscape.org/) -->
<svg
   xmlns:dc="http://purl.org/dc/elements/1.1/"
   xmlns:cc="http://creativecommons.org/ns#"
   xmlns:rdf="http://www.w3.org/1999/02/22-rdf-syntax-ns#"
   xmlns:svg="http://www.w3.org/2000/svg"
   xmlns="http://www.w3.org/2000/svg"
   xmlns:sodipodi="http://sodipodi.sourceforge.net/DTD/sodipodi-0.dtd"
   xmlns:inkscape="http://www.inkscape.org/namespaces/inkscape"
   version="1.0"
   width="673.22833"
   height="581.10236"
   id="svg2545"
   sodipodi:version="0.32"
   inkscape:version="0.46+pre4"
   sodipodi:docname="International_Criminal_Court_logo.svg"
   inkscape:output_extension="org.inkscape.output.svg.inkscape">
  <metadata
     id="metadata40">
    <rdf:RDF>
      <cc:Work
         rdf:about="">
        <dc:format>image/svg+xml</dc:format>
        <dc:type
           rdf:resource="http://purl.org/dc/dcmitype/StillImage" />
        <dc:subject>
          <rdf:Bag>
            <rdf:li>International Criminal Court logo scale justice blue plant vine tree</rdf:li>
          </rdf:Bag>
        </dc:subject>
      </cc:Work>
    </rdf:RDF>
  </metadata>
  <sodipodi:namedview
     inkscape:window-height="1001"
     inkscape:window-width="1680"
     inkscape:pageshadow="2"
     inkscape:pageopacity="0.0"
     guidetolerance="10.0"
     gridtolerance="10.0"
     objecttolerance="10.0"
     borderopacity="1.0"
     bordercolor="#666666"
     pagecolor="#ffffff"
     id="base"
     showgrid="false"
     inkscape:zoom="0.79504066"
     inkscape:cx="161.15144"
     inkscape:cy="290.55118"
     inkscape:window-x="-4"
     inkscape:window-y="-4"
     inkscape:current-layer="svg2545" />
  <defs
     id="defs2547">
    <inkscape:perspective
       sodipodi:type="inkscape:persp3d"
       inkscape:vp_x="0 : 290.55118 : 1"
       inkscape:vp_y="0 : 1000 : 0"
       inkscape:vp_z="673.22833 : 290.55118 : 1"
       inkscape:persp3d-origin="336.61417 : 193.70079 : 1"
       id="perspective42" />
  </defs>
 
      <path
         d="M 593.30756,498.27689 C 593.30756,498.27689 593.30756,498.27689 593.07584,498.27689 L 590.29447,493.06188 L 590.17857,493.06188 L 506.38974,340.89763 L 268.46663,340.89763 L 267.65538,342.52012 L 182.01234,498.27689 L 182.24415,498.27689 L 182.12824,498.27689 C 182.01234,498.27689 182.01234,498.27689 182.01234,498.27689 C 182.01234,498.27689 182.01234,498.39279 182.12824,498.5087 L 182.01234,498.6246 L 182.36005,498.6246 C 187.69097,504.53496 265.80117,586.8172 354.68911,498.6246 L 355.03682,498.6246 L 354.92092,498.39279 C 355.03682,498.39279 355.03682,498.39279 355.03682,498.27689 L 354.92092,498.27689 L 354.92092,498.27689 L 354.92092,498.27689 L 353.18261,494.91609 L 352.13955,493.06188 L 352.02365,493.06188 L 271.4798,346.57626 L 271.59571,346.34454 L 382.15522,346.34454 C 382.15522,347.03988 381.34397,357.81772 367.55296,529.33552 C 366.6259,553.09311 356.54341,560.85777 348.66285,563.29142 L 260.81788,563.29142 C 253.40084,563.29142 247.49049,568.85415 247.49049,575.69174 C 247.49049,582.52925 253.40084,587.97607 260.81788,587.97607 L 516.81985,587.97607 C 524.12098,587.97607 530.14733,582.52925 530.14733,575.69174 C 530.14733,568.85415 524.12098,563.29142 516.81985,563.29142 L 426.77305,563.29142 C 418.77658,560.97368 408.57818,553.09311 407.65112,529.33552 C 393.97602,357.81772 393.16477,347.03988 393.04886,346.34454 L 503.26075,346.34454 L 422.48509,493.06188 L 422.48509,493.06188 L 419.70373,498.27689 L 419.81954,498.27689 L 419.81954,498.27689 L 419.58782,498.27689 C 419.70373,498.39279 419.70373,498.39279 419.70373,498.39279 L 419.58782,498.6246 L 419.93545,498.6246 C 509.28701,586.8172 587.62892,504.53496 592.95993,498.6246 L 593.30756,498.6246 L 593.19165,498.5087 C 593.30756,498.39279 593.30756,498.27689 593.30756,498.27689 z M 346.11329,493.06188 L 190.93596,493.06188 L 268.46663,352.02318 L 346.11329,493.06188 z M 428.51135,493.06188 L 506.27383,351.79137 L 584.15222,493.06188 L 428.51135,493.06188"
         style="fill:#104179;fill-rule:nonzero;stroke:none"
         id="path26" />
      <path
         d="M 471.50669,778.61589 C 471.50669,778.61589 403.59489,699.81036 323.97819,721.82955 C 287.35683,736.77943 265.80117,747.32545 253.98037,749.64329 C 242.27538,751.72931 214.69346,753.93124 197.88937,742.57397 C 228.71619,770.73533 257.34117,772.47373 278.43321,768.5334 C 299.52526,764.47726 320.61739,747.32545 326.06422,742.92169 C 331.62694,738.63374 351.67602,714.76024 390.61522,730.17374 C 418.77658,743.38522 454.58669,782.20851 460.61304,789.16192 C 471.50669,778.61589 471.50669,778.61589 471.50669,778.61589"
         style="fill:#104179;fill-rule:nonzero;stroke:none"
         id="path28" />
      <path
         d="M 323.51457,720.32306 C 323.39876,720.32306 291.99241,733.53454 291.99241,733.53454 C 273.56583,741.4151 261.39731,746.5143 253.63265,748.02079 C 250.04004,748.71614 217.82254,754.16305 198.81652,741.18329 L 196.84631,743.61703 C 196.84631,743.73284 196.96222,743.84875 196.96222,743.84875 C 222.11049,766.67919 249.57651,775.48691 278.78093,770.03999 C 292.80366,767.37453 309.02831,758.79863 326.87546,744.31237 C 327.10718,744.19647 329.1932,742.34216 329.1932,742.34216 C 336.49433,735.73647 355.84807,718.12113 390.03569,731.68023 C 417.26999,744.42818 452.15304,781.62907 459.33826,790.20497 L 460.49713,791.47975 L 473.70861,778.7318 L 472.66565,777.57293 C 471.97031,776.76168 403.24726,698.30386 323.51457,720.32306 z M 254.32799,751.14988 C 262.32446,749.64329 274.60888,744.42818 293.15128,736.43181 L 324.55763,723.33614 C 398.7275,702.82353 463.16259,771.77839 469.30476,778.49999 C 467.68236,780.12248 462.35135,785.22168 460.61304,786.84417 C 451.68942,776.64578 418.19714,741.2992 391.19465,728.78306 C 355.15273,714.41261 334.75603,732.9551 326.99137,740.02442 L 325.13706,741.76273 C 307.52173,755.90136 291.7606,764.36136 278.08559,766.911 C 253.16912,771.66248 229.52743,764.94079 207.50824,748.1367 C 227.09379,754.9743 251.0831,751.72931 254.32799,751.14988"
         style="fill:#ffffff;fill-rule:nonzero;stroke:none"
         id="path30" />
      <path
         d="M 308.7965,718.23694 C 308.7965,718.23694 264.98992,727.62409 248.53345,732.37557 C 232.07708,737.24305 176.44961,738.17011 144.0003,688.80081 C 169.72801,709.89285 201.25017,709.89285 213.88221,709.42932 C 226.63016,709.0816 259.42719,713.94908 275.53594,716.96217 C 275.18832,713.94908 258.96366,710.35647 254.09618,707.80683 C 249.2288,705.25727 235.55379,701.20113 218.98141,665.0433 C 213.41868,654.03366 212.49153,647.89149 208.6672,644.5307 C 215.62061,645.57366 229.17981,660.17582 233.35186,664.57968 C 237.5239,668.98354 262.78799,698.07205 277.15844,705.48899 C 291.52888,713.02193 298.5982,716.61454 308.7965,718.23694"
         style="fill:#104179;fill-rule:nonzero;stroke:none"
         id="path32" />
      <path
         d="M 207.62414,645.80547 C 209.71017,647.54378 210.86913,650.32514 212.60744,654.61309 L 217.59073,665.73864 C 233.00414,699.46273 245.868,705.6049 252.01016,708.61807 L 253.28503,709.19751 L 262.20856,712.44249 C 263.13571,712.79012 264.41049,713.25365 265.56936,713.60137 C 248.99708,710.93591 224.77595,707.57511 213.88221,707.92273 C 185.72085,708.73398 162.54279,701.89647 145.04335,687.52603 L 142.60961,689.72796 C 173.90006,737.12715 228.71619,739.90851 248.99708,733.88216 C 265.10583,729.13068 308.6806,719.97534 309.14422,719.85944 L 309.02831,716.73045 C 298.94582,714.99205 291.87651,711.39944 277.85378,704.09831 C 265.68526,697.72433 245.05675,675.00989 237.29209,666.43399 L 234.51073,663.42081 L 233.46776,662.37775 C 224.77595,653.22241 215.04118,643.83535 208.89892,643.02411 L 207.62414,645.80547 z M 263.13571,709.42932 L 254.79162,706.41614 L 253.40084,705.7208 C 247.95402,703.17125 235.43788,697.02899 220.488,664.34796 C 220.488,664.23206 215.50471,653.33832 215.50471,653.33832 C 214.57755,650.90467 213.41868,649.74571 212.37563,648.0074 C 218.7496,651.71582 227.44141,660.63945 231.14993,664.57968 L 232.19289,665.62274 L 234.85844,668.63591 C 242.73901,677.21173 263.71515,700.38989 276.4631,706.99558 C 287.35683,712.67421 294.19434,716.15092 301.49547,718.23694 C 288.3998,721.13421 260.47016,727.16056 248.06992,730.86908 C 229.64334,736.3159 181.89643,733.88216 151.18552,695.5225 C 168.10552,706.41614 189.08165,711.86297 213.99812,711.05181 C 226.16663,710.7041 257.8047,715.22386 275.18832,718.46875 L 277.27434,718.93228 L 277.04253,716.73045 C 277.04253,716.26682 276.11538,715.9192 275.76775,715.45558 L 275.76775,715.45558 C 275.76775,715.45558 275.65185,715.33976 275.65185,715.33976 C 274.14526,713.48546 270.66856,711.86297 263.13571,709.42932"
         style="fill:#ffffff;fill-rule:nonzero;stroke:none"
         id="path34" />
      <path
         d="M 227.90494,700.6216 C 227.90494,700.6216 205.88584,694.59535 189.54528,692.27751 C 173.08881,690.07558 115.72303,675.58932 93.356211,608.25696 C 115.95484,634.56411 121.05395,636.18651 134.26552,642.7923 C 147.59291,649.39808 187.69097,672.22843 201.59789,684.74466 C 205.65403,687.06241 205.65403,687.06241 205.65403,687.06241 C 205.65403,687.06241 207.04471,685.3241 200.90254,680.109 C 194.9921,674.77808 174.7113,656.35149 171.58222,615.09447 C 169.03267,596.89969 164.97643,580.32732 163.70166,578.12539 C 172.857,583.3405 183.63483,604.43254 185.83676,610.34298 C 188.03869,616.36924 202.87266,657.97399 204.84278,662.95728 C 206.69699,667.82467 218.7496,694.24763 227.90494,700.6216"
         style="fill:#104179;fill-rule:nonzero;stroke:none"
         id="path36" />
      <path
         d="M 162.31098,578.82073 C 163.35403,580.67504 167.41017,596.78379 169.95973,615.32628 C 171.46632,634.67992 177.84029,661.91422 199.85949,681.26796 C 199.97539,681.26796 199.97539,681.26796 199.97539,681.38386 C 184.67789,668.75173 148.28825,648.0074 134.96086,641.40161 L 132.87484,640.24274 C 121.40167,634.56411 115.60713,631.78274 94.630991,607.2139 L 91.849621,608.72049 C 116.18656,682.07921 181.89643,692.97285 189.31347,693.9 C 205.42222,695.98603 227.2096,702.2441 227.44141,702.2441 L 228.83209,699.46273 C 220.37209,693.43638 208.5513,668.2882 206.23346,662.37775 L 187.34335,609.87945 C 185.25732,604.43254 174.36359,582.41334 164.5129,576.73471 L 162.31098,578.82073 z M 206.9288,687.98956 C 207.27652,687.64193 207.39233,687.17831 207.39233,686.59888 C 207.39233,685.09229 206.34937,682.65864 201.94551,678.95012 C 180.85347,660.17582 174.5954,633.86877 173.20471,614.97856 C 171.46632,602.46242 168.91676,590.29391 166.94665,583.22459 C 174.5954,590.87334 182.47596,605.93913 184.33017,610.92242 L 203.33619,663.53672 C 204.61097,666.89752 214.11403,687.75784 223.03755,697.72433 C 215.62061,695.87012 201.36607,692.27751 189.66118,690.77092 C 182.93949,689.84386 124.87837,679.52956 98.803031,616.71696 C 114.56416,634.21639 121.05395,638.04081 131.36825,643.14001 L 133.57018,644.18298 C 147.3611,651.13639 186.87972,673.61911 200.55483,685.90354 C 200.78664,686.13535 204.95869,688.45318 204.95869,688.45318 L 206.11756,689.14852 L 206.9288,687.98956"
         style="fill:#ffffff;fill-rule:nonzero;stroke:none"
         id="path38" />
      <path
         d="M 166.59893,645.68957 C 166.59893,645.68957 139.017,629.58082 123.83531,617.75992 C 108.65372,605.82322 66.006011,574.76459 70.409861,519.60074 C 77.015651,537.44789 87.793391,553.67255 99.498381,563.52323 C 111.20327,573.48981 132.41122,604.78026 137.51042,612.08129 C 142.49371,619.38242 145.97041,621.35254 145.97041,621.35254 C 145.97041,621.35254 147.59291,617.75992 141.91427,611.50186 C 137.74223,604.78026 130.20929,589.01913 134.26552,554.5997 C 139.36472,522.61392 141.21893,514.96517 140.29178,509.98187 C 144.69564,521.22324 150.49018,545.44436 152.69211,583.3405 C 153.96688,604.78026 156.40053,621.35254 159.18199,628.65366 C 162.07916,635.83889 166.59893,645.68957 166.59893,645.68957"
         style="fill:#104179;fill-rule:nonzero;stroke:none"
         id="path40" />
      <path
         d="M 138.78519,510.3295 C 138.9011,511.02484 138.9011,511.83609 138.9011,512.76324 C 138.9011,516.35585 137.97404,522.03448 136.00383,534.08709 L 132.75893,554.36789 C 131.94769,561.20539 131.48416,567.46346 131.48416,573.37391 C 131.48416,589.59857 134.49724,602.69423 140.52359,612.3131 C 142.49371,614.39913 143.42086,616.02162 144.0003,617.4123 C 142.60961,616.02162 140.87122,614.16731 138.78519,611.15423 C 138.78519,611.15423 137.04689,608.72049 137.04689,608.72049 C 130.09348,598.52219 111.31917,571.5197 100.54134,562.36436 C 89.068261,552.62949 78.406331,536.52074 71.800551,519.02131 L 68.787371,519.48484 C 64.499421,573.48981 104.13395,604.31663 121.05395,617.64411 L 122.79235,618.91889 C 137.85813,630.73969 165.44006,646.96434 165.67178,647.08025 L 167.98961,645.11013 L 160.68848,628.07423 C 157.90712,620.65719 155.47347,603.96901 154.19869,583.22459 C 151.53314,537.33199 144.0003,515.08098 141.79837,509.40234 L 138.78519,510.3295 z M 139.13291,534.55062 C 140.40769,527.24949 141.10303,522.61392 141.56656,518.9054 C 144.69564,529.79914 149.0995,550.19584 151.06961,583.4564 C 152.34439,604.43254 154.77813,621.46844 157.79131,629.2331 C 157.79131,629.2331 161.0362,636.76604 163.12222,641.86514 C 154.89404,636.88185 136.23564,625.40877 124.76247,616.48515 L 123.02416,615.09447 C 107.37894,602.81014 71.684641,574.9964 71.684641,527.48131 C 71.684641,526.90187 71.684641,526.32243 71.684641,525.74291 C 78.522151,541.50403 87.793391,555.75857 98.455321,564.798 C 109.00134,573.60572 127.54383,600.4923 134.49724,610.5748 L 136.11973,613.00844 C 141.33484,620.42548 145.04335,622.62741 145.15917,622.74322 L 146.78166,623.67037 L 147.3611,621.93197 C 147.70881,621.46844 149.2154,617.18049 143.07314,610.34298 C 135.42439,598.05856 132.99075,579.28435 135.88792,554.83142 C 135.88792,554.83142 139.13291,534.55062 139.13291,534.55062"
         style="fill:#ffffff;fill-rule:nonzero;stroke:none"
         id="path42" />
      <path
         d="M 120.70632,568.85415 C 120.70632,568.85415 111.20327,554.02017 102.62736,544.2854 C 94.051551,534.78243 56.155331,491.90292 75.740781,419.58726 C 75.740781,436.39144 78.058621,445.89441 79.797011,451.92076 C 81.767131,457.83111 100.54134,498.16098 102.39565,509.05472 C 104.24986,519.94846 107.37894,540.46107 111.7828,542.77881 C 113.4052,541.73584 111.55099,538.14323 110.97155,534.78243 C 110.27621,531.53745 104.82929,503.49199 121.28576,473.0128 C 136.23564,446.24212 139.017,443.69248 141.21893,434.42123 C 141.91427,451.92076 136.23564,486.572 131.71588,501.17416 C 127.31211,515.66051 115.37531,549.3846 120.70632,568.85415"
         style="fill:#104179;fill-rule:nonzero;stroke:none"
         id="path44" />
      <path
         d="M 101.46849,545.44436 C 109.81259,554.83142 119.31564,569.54949 119.31564,569.66539 L 122.21291,568.39062 C 117.57724,551.47062 126.73258,522.49801 131.60006,506.85279 L 133.22246,501.63769 C 137.51042,487.73087 143.53677,452.6161 142.84143,434.30542 L 139.71234,433.9577 C 138.08985,440.33168 136.35155,443.57657 130.20929,454.12269 L 119.89508,472.31746 C 110.1603,490.28042 107.95837,507.54813 107.95837,519.60074 C 107.95837,526.67006 108.76962,531.53745 109.23315,534.08709 C 107.14713,527.01778 105.29292,516.70347 104.24986,511.14074 L 103.90223,508.82291 C 102.62736,501.17416 93.819741,480.66155 87.329861,465.71167 L 81.419421,451.45714 C 79.681111,445.89441 77.363271,436.39144 77.363271,419.58726 L 74.234291,419.12373 C 61.370431,466.52292 71.105201,511.37256 101.46849,545.44436 z M 103.78633,543.24243 C 82.694281,519.71665 71.916451,490.74405 71.916451,459.3377 C 71.916451,450.53008 73.075321,441.60646 74.697821,432.56702 C 75.509061,441.95417 77.015651,448.21224 78.290431,452.38429 C 78.290431,452.38429 84.432591,466.98645 84.432591,466.98645 C 90.458941,480.89337 99.614281,502.10131 100.77315,509.28653 C 100.77315,509.28653 101.12087,511.72018 101.12087,511.72018 C 104.01805,528.06074 106.6836,541.85175 111.08736,544.16949 L 111.89861,544.51721 L 112.70986,544.05359 C 113.63701,543.47415 113.98463,542.43119 113.98463,541.38813 C 113.98463,540.11335 113.63701,538.72267 113.17348,537.33199 L 112.47814,534.55062 C 112.01451,532.4646 111.08736,527.13359 111.08736,519.48484 C 111.08736,507.89585 113.28929,491.20758 122.79235,473.82405 L 132.99075,455.74509 C 135.88792,450.64589 137.85813,447.28509 139.24882,444.27191 C 138.32166,463.04622 133.68609,489.12155 130.20929,500.71063 L 128.58689,505.92564 C 124.29894,519.48484 117.69315,540.22926 117.69315,557.26516 C 117.69315,559.11937 118.15677,560.74186 118.38849,562.48017 C 114.79588,557.26516 109.23315,549.3846 103.78633,543.24243"
         style="fill:#ffffff;fill-rule:nonzero;stroke:none"
         id="path46" />
      <path
         d="M 104.82929,480.89337 C 104.82929,480.89337 99.150661,457.83111 92.197251,439.40453 C 85.243841,420.86213 71.916451,377.8667 106.45179,333.01716 C 99.150661,350.86421 102.04793,362.45329 102.04793,364.42341 C 102.04793,366.39353 106.33588,406.02806 106.45179,415.87884 C 106.56769,428.51088 104.24986,450.29827 104.24986,450.29827 C 104.24986,450.29827 105.0611,452.96372 106.7995,450.29827 C 107.84247,448.67577 110.1603,420.51441 127.0803,403.71032 C 142.72552,388.0651 155.47347,376.2443 158.95018,369.75442 C 158.95018,381.2275 152.34439,398.14759 146.89757,407.30293 C 141.56656,416.57418 119.43155,446.93747 114.33235,457.13577 C 109.34906,467.45007 104.82929,479.61859 104.82929,480.89337"
         style="fill:#104179;fill-rule:nonzero;stroke:none"
         id="path48" />
      <path
         d="M 90.690661,439.98406 C 97.528261,458.06292 103.20689,481.12508 103.32271,481.3569 L 106.45179,481.00927 C 106.56769,479.7344 110.73974,468.26132 115.83894,457.94702 C 118.73621,451.92076 127.65974,438.82509 135.6562,427.2361 L 148.28825,408.11418 C 154.19869,398.03169 160.45676,381.11169 160.45676,369.75442 L 157.55949,368.94317 C 154.77813,374.15819 145.7387,383.08181 134.14962,394.43908 L 125.92143,402.55136 C 111.89861,416.45827 107.61066,438.24566 105.98826,446.35794 C 105.98826,446.35794 105.64054,448.21224 105.52463,449.02349 C 106.10416,446.12622 107.95837,415.87884 107.95837,415.87884 L 104.71339,375.20124 L 103.55452,362.91682 C 103.32271,361.52614 103.09099,359.32421 103.09099,356.42704 C 103.09099,351.09603 104.01805,343.33137 107.84247,333.59659 L 105.17701,331.9741 C 80.724071,363.84398 75.856691,400.11771 90.690661,439.98406 z M 93.703841,438.82509 C 88.257011,424.22293 85.475651,410.0843 85.475651,396.5251 C 85.475651,377.51908 91.154281,359.67193 101.81621,342.86784 C 100.54134,348.19876 99.961911,352.95024 99.961911,356.42704 C 99.961911,359.44012 100.19372,361.75795 100.30962,363.26454 C 100.54134,364.42341 101.46849,375.54896 101.46849,375.54896 L 104.82929,415.87884 C 104.82929,415.87884 102.62736,450.06645 102.62736,450.06645 C 102.85918,451.10951 103.43861,452.84782 105.0611,452.96372 C 106.21998,453.19554 107.26303,452.50019 108.07428,451.10951 C 108.07428,451.10951 109.11725,446.93747 109.11725,446.93747 C 110.73974,439.0569 114.79588,418.08067 128.12327,404.86919 C 128.12327,404.86919 136.46745,396.641 136.46745,396.641 C 145.97041,387.25385 152.4603,380.53216 156.63234,375.08534 C 155.12575,385.97908 149.79484,399.30646 145.50688,406.60759 L 132.99075,425.49771 C 124.99428,437.08679 115.95484,450.29827 112.94167,456.44043 C 109.92849,462.58269 106.91532,469.99963 105.0611,475.21473 C 102.85918,467.33417 98.687131,451.92076 93.703841,438.82509"
         style="fill:#ffffff;fill-rule:nonzero;stroke:none"
         id="path50" />
      <path
         d="M 114.79588,402.31964 C 114.79588,402.31964 117.34552,395.94566 115.02769,370.21795 C 112.59395,344.49024 111.55099,309.37547 151.41733,285.73377 C 141.45074,302.42206 139.82825,305.31933 136.81507,318.99434 C 133.8019,332.55353 130.4411,354.34092 124.99428,366.62534 C 122.79235,372.65169 121.40167,377.40317 122.44463,377.98261 C 123.37178,378.56204 123.83531,377.51908 124.53075,375.43306 C 125.45781,373.34703 133.57018,354.92045 150.02656,343.21546 C 166.48302,331.51057 181.317,319.80558 186.87972,308.2166 C 184.44608,329.65626 176.3337,337.30511 168.22142,348.08285 C 159.41371,359.78784 127.77564,384.24068 122.44463,392.23715 C 116.99781,400.11771 114.79588,402.31964 114.79588,402.31964"
         style="fill:#104179;fill-rule:nonzero;stroke:none"
         id="path52" />
      <path
         d="M 113.4052,370.33386 C 115.72303,395.01851 113.28929,401.6243 113.28929,401.6243 L 115.83894,403.47851 L 123.7195,393.04839 C 126.15315,389.45578 134.72905,381.92294 143.65258,373.92647 C 154.08279,364.77113 164.86062,355.26807 169.4962,349.01 C 169.4962,349.01 172.74109,344.83796 172.74109,344.83796 C 179.6946,335.91443 186.30029,327.45434 188.50222,308.44832 L 185.48904,307.52126 C 179.92631,318.99434 164.74472,330.81523 149.0995,341.94069 C 137.16279,350.40068 129.62985,362.22148 125.80552,369.2908 C 126.03724,368.47964 126.15315,368.24783 126.50086,367.20478 C 130.67291,357.93353 133.45428,343.33137 136.11973,330.58342 L 138.32166,319.34205 C 141.33484,306.13057 142.72552,303.46502 152.80801,286.54502 L 150.60608,284.34309 C 107.72656,309.839 111.43508,349.24181 113.4052,370.33386 z M 117.57724,388.99225 C 117.57724,384.24068 117.34552,378.09851 116.53428,370.10205 C 116.07066,365.11875 115.60713,359.09249 115.60713,352.48671 C 115.60713,333.7125 121.16985,310.41853 145.7387,292.33956 C 139.59644,302.76968 137.74223,307.28945 135.30849,318.64671 L 132.87484,329.88808 C 130.4411,342.52012 127.54383,356.89057 123.48769,366.0459 C 121.28576,371.95635 120.47451,375.20124 120.47451,377.05546 C 120.47451,378.33033 120.93814,378.90976 121.63348,379.37329 L 122.21291,379.72101 L 123.60359,379.6051 C 124.87837,379.14148 125.45781,377.7508 126.03724,375.89659 C 126.84849,374.04237 135.07677,355.84751 150.95371,344.49024 C 164.04938,335.21899 176.44961,325.36831 183.86664,315.63354 C 181.20109,328.26558 176.10198,335.3349 170.19154,342.98374 L 166.94665,347.03988 C 162.42688,353.06614 151.41733,362.91682 141.56656,371.60863 C 132.06359,380.06863 123.7195,387.36976 121.05395,391.30999 C 121.05395,391.30999 119.19974,393.85964 117.34552,396.29329 C 117.46134,394.32317 117.57724,392.12124 117.57724,388.99225"
         style="fill:#ffffff;fill-rule:nonzero;stroke:none"
         id="path54" />
      <path
         d="M 144.57973,334.06012 C 144.57973,334.06012 149.79484,306.82592 160.22495,290.71707 C 170.65507,274.60832 192.32664,260.35378 215.15699,253.28446 C 207.16061,260.00615 202.29323,266.03241 199.51186,270.8998 C 196.7305,275.65138 179.46278,302.65378 171.58222,311.22968 C 163.46985,319.80558 150.49018,327.57024 144.57973,334.06012"
         style="fill:#104179;fill-rule:nonzero;stroke:none"
         id="path56" />
      <path
         d="M 158.83427,289.79001 C 148.40415,306.01467 143.30496,332.66944 143.07314,333.7125 L 145.85451,335.10318 L 157.44359,325.2525 L 172.62528,312.27274 C 180.85347,303.46502 198.23699,276.34672 200.90254,271.71105 C 204.14744,266.03241 209.24664,260.23787 216.20005,254.44343 L 214.69346,251.77787 C 190.58824,259.19491 169.26439,273.79707 158.83427,289.79001 z M 161.61564,291.52831 C 170.42335,277.8533 188.03869,265.45298 208.20358,257.68832 C 204.14744,261.86037 200.55483,266.03241 198.12118,270.08855 C 195.45563,274.60832 178.30391,301.49491 170.30744,310.18671 C 170.30744,310.18671 150.72199,326.759 147.12938,329.77217 C 149.0995,321.42808 153.96688,303.34921 161.61564,291.52831"
         style="fill:#ffffff;fill-rule:nonzero;stroke:none"
         id="path58" />
      <path
         d="M 309.26012,780.70192 C 309.26012,780.70192 375.20172,700.15807 455.28203,720.20715 C 492.36701,734.22988 514.03849,744.19647 525.97519,746.05068 C 537.79608,748.02079 565.2621,749.52738 581.83447,737.59068 C 551.7029,766.56329 523.07802,769.11293 501.98588,765.63623 C 480.77793,762.15943 459.33826,745.58715 453.77544,741.2992 C 448.21271,737.01124 427.35248,713.83318 388.99272,730.17374 C 360.94727,744.08056 326.18012,783.71509 320.38558,790.90032 C 309.26012,780.70192 309.26012,780.70192 309.26012,780.70192"
         style="fill:#104179;fill-rule:nonzero;stroke:none"
         id="path60" />
      <path
         d="M 307.98526,779.65895 L 307.0582,780.81782 L 320.61739,793.21815 L 321.66036,791.82747 C 328.72967,783.13566 362.80148,745.00771 389.68806,731.56442 C 423.41215,717.19398 443.22942,734.34578 450.64645,740.83567 L 452.73248,742.57397 C 471.15906,756.5967 487.49962,764.94079 501.75416,767.25863 C 530.95849,771.8943 558.30869,762.39124 582.76153,738.98136 C 582.87744,738.86546 582.87744,738.86546 582.87744,738.74955 L 580.90732,736.3159 C 562.13302,749.75919 529.79962,745.12352 526.207,744.54409 C 518.44235,743.26931 506.38974,738.51783 488.07906,731.2167 L 455.86146,718.70056 C 375.54943,698.53558 308.6806,778.84771 307.98526,779.65895 z M 454.93441,721.71374 L 486.92019,734.22988 C 505.46259,741.53101 517.6311,746.39839 525.74347,747.67317 C 528.75665,748.1367 551.587,751.26578 570.59302,744.7759 C 549.50098,761.23237 526.67053,767.95397 502.21769,764.01373 C 488.65849,761.8118 472.66565,753.81533 454.93441,740.14032 C 454.70259,740.02442 452.73248,738.40193 452.73248,738.40193 C 444.85191,731.56442 423.99159,713.48546 388.29738,728.78306 C 361.75842,741.87863 328.96149,778.03646 320.26968,788.58248 C 318.53128,787.07589 313.08445,781.97669 311.46196,780.58601 C 317.37241,773.6326 380.0692,703.05534 454.93441,721.71374"
         style="fill:#ffffff;fill-rule:nonzero;stroke:none"
         id="path62" />
      <path
         d="M 470.46372,716.26682 C 470.46372,716.26682 514.50211,724.3792 530.95849,728.78306 C 547.53086,733.18682 603.27414,732.72329 634.56458,682.54274 C 609.30049,704.33012 577.66233,705.14137 565.03029,705.02546 C 552.39825,704.90956 519.60122,710.58819 503.72428,714.0649 C 503.95609,710.93591 520.06484,706.99558 524.93223,704.33012 C 529.68371,701.66466 543.24291,697.2608 558.88813,660.63945 C 564.33495,649.51399 565.03029,643.25583 568.85471,639.89503 C 561.9013,641.1698 548.68973,656.11968 544.63359,660.52354 C 540.46154,665.15912 515.89279,694.82716 501.75416,702.59181 C 487.61553,710.58819 480.54621,714.1808 470.46372,716.26682"
         style="fill:#104179;fill-rule:nonzero;stroke:none"
         id="path64" />
      <path
         d="M 544.63359,658.20571 L 543.47472,659.48048 L 540.34564,662.95728 C 532.81279,671.649 512.87962,694.71125 501.05882,701.20113 C 486.68838,709.31341 479.85087,712.67421 470.116,714.64442 L 470.116,717.77341 C 470.46372,717.88932 514.2703,726.0016 530.61086,730.28955 C 551.00756,735.85237 605.82379,731.68023 635.83936,683.35398 L 633.52162,681.38386 C 616.2539,696.21784 593.19165,703.63478 565.1462,703.40297 C 554.13664,703.28715 530.14733,707.22739 513.45905,710.47228 C 514.61792,710.00875 515.89279,709.54522 516.93576,709.19751 L 525.62757,705.7208 L 527.01825,705.02546 C 532.58098,702.2441 545.67665,695.5225 560.39471,661.33479 L 565.1462,650.09342 C 566.76869,645.80547 567.92756,642.9082 569.78186,641.1698 L 568.507,638.38844 C 562.48074,639.4315 553.09359,648.93446 544.63359,658.20571 z M 502.56541,704.09831 C 514.84974,697.1449 534.43519,674.66217 542.77938,665.0433 L 545.79246,661.68241 L 547.06733,660.29173 C 550.65994,656.35149 559.00403,647.42787 565.1462,643.48764 C 564.21904,645.22604 563.06017,646.50081 562.13302,648.93446 L 557.49744,659.9441 C 543.24291,693.20466 530.84267,699.46273 525.51166,702.2441 L 524.12098,702.93944 C 524.12098,702.93944 515.89279,706.18433 515.89279,706.18433 C 508.35986,708.84988 504.99906,710.58819 503.49247,712.44249 C 503.49247,712.44249 503.37656,712.55831 503.37656,712.55831 L 503.37656,712.55831 C 503.02894,713.02193 502.21769,713.48546 502.10179,713.94908 L 501.98588,716.15092 L 504.0719,715.57148 C 518.90588,712.32659 552.05062,706.53205 565.03029,706.64795 C 589.94676,706.76386 610.80708,700.85341 627.49527,689.38024 C 597.59551,728.66715 549.9646,732.25976 531.42211,727.27647 C 519.02178,723.91558 490.86042,718.46875 477.64894,716.03511 C 484.71826,713.71727 491.43986,710.24057 502.56541,704.09831 z M 560.39471,661.33479 L 560.39471,661.33479"
         style="fill:#ffffff;fill-rule:nonzero;stroke:none"
         id="path66" />
      <path
         d="M 551.00756,696.56546 C 551.00756,696.56546 572.67904,689.84386 589.0196,687.29422 C 605.47607,684.62876 662.49422,668.63591 683.12264,600.72402 C 661.21935,627.61061 656.23606,629.349 643.14049,636.41832 C 630.04482,643.25583 590.41029,667.01342 576.73528,679.87728 C 572.67904,682.31092 572.67904,682.31092 572.67904,682.31092 C 572.67904,682.31092 571.52017,680.68843 577.31471,675.35751 C 583.22516,669.91069 603.04242,650.90467 605.24426,609.53174 C 607.33038,591.33696 611.0388,574.76459 612.31358,572.33094 C 603.27414,577.89367 592.95993,599.33334 590.87391,605.24379 C 588.78788,611.27014 574.88097,653.22241 573.14266,658.20571 C 571.28836,663.189 559.93109,689.84386 551.00756,696.56546"
         style="fill:#104179;fill-rule:nonzero;stroke:none"
         id="path68" />
      <path
         d="M 589.36732,604.78026 L 571.63608,657.74218 C 569.31824,663.88434 558.19278,689.14852 549.9646,695.29069 L 551.35528,698.07205 C 551.587,698.07205 573.25857,691.35036 589.36732,688.80081 C 596.66845,687.64193 662.14651,675.1257 684.74514,601.18764 L 681.96377,599.68106 C 661.33526,624.94515 656.00434,627.72651 644.41526,633.86877 L 642.32924,634.91173 C 629.34948,641.86514 594.0029,663.189 578.58949,676.28467 C 600.02925,656.23559 605.82379,629.00138 606.86675,609.64764 C 608.95278,590.98925 612.54539,574.9964 613.70435,573.1421 L 611.38652,570.94026 C 601.65174,576.96652 591.33744,599.33334 589.36732,604.78026 z M 574.64925,658.78514 C 574.64925,658.78514 592.3805,605.82322 592.3805,605.82322 C 594.1188,600.72402 601.65174,585.54242 609.06868,577.66186 C 607.33038,584.73118 605.12845,596.66788 603.62186,609.29993 C 602.11527,636.76604 592.95993,658.55342 576.27165,674.19864 C 572.21551,677.90707 571.05664,680.34081 571.05664,681.84739 C 571.05664,682.42683 571.17255,683.00627 571.52017,683.35398 L 572.33142,684.39695 L 577.54652,681.26796 C 591.10563,668.63591 630.16073,645.11013 643.83583,637.809 L 645.80595,636.76604 C 656.12025,631.31912 662.49422,627.37889 677.90763,609.29993 C 653.4547,672.80796 595.62539,684.51285 588.78788,685.67172 C 577.19881,687.52603 563.06017,691.35036 555.64323,693.55229 C 564.33495,683.46989 573.14266,662.95728 574.64925,658.78514"
         style="fill:#ffffff;fill-rule:nonzero;stroke:none"
         id="path70" />
      <path
         d="M 610.92289,640.12684 C 610.92289,640.12684 638.04129,623.20684 652.99117,610.92242 C 667.82514,598.7539 709.77751,566.65231 704.09888,511.60427 C 697.84081,529.56733 687.5265,546.0238 676.05333,556.2221 C 664.58025,566.4205 644.18345,598.29037 639.31606,605.70732 C 634.33277,613.12435 630.97197,615.21037 630.97197,615.21037 C 630.97197,615.21037 629.23367,611.61776 634.79639,605.12788 C 638.73663,598.52219 646.03776,582.41334 641.05446,548.22572 C 635.25992,516.23994 633.28981,508.707 633.98515,503.83962 C 629.92901,515.08098 624.7139,539.3021 623.43913,577.31424 C 622.74378,598.86981 620.54186,615.44218 617.8764,622.74322 C 615.21085,630.16025 610.92289,640.12684 610.92289,640.12684"
         style="fill:#104179;fill-rule:nonzero;stroke:none"
         id="path72" />
      <path
         d="M 621.81663,577.31424 C 621.12129,598.05856 619.03527,614.86265 616.36981,622.16378 L 609.53221,639.5474 L 611.85005,641.51752 C 612.08186,641.28571 639.20025,624.36571 654.03423,612.1972 L 655.77253,610.80651 C 672.3449,597.1315 711.2841,565.37744 705.72137,511.37256 L 702.59229,511.02484 C 696.45012,528.87199 686.36763,544.98074 675.01036,555.06323 C 664.46434,564.45038 646.38538,591.9164 639.54788,602.34652 L 637.92538,604.89616 C 635.83936,607.90924 634.21696,609.76355 632.94209,611.15423 C 633.40571,609.87945 634.21696,608.25696 635.95526,606.17094 C 641.51799,596.89969 644.29936,584.49937 644.29936,569.43367 C 644.29936,562.71198 643.83583,555.52676 642.67696,547.99391 C 642.67696,547.87801 638.85253,527.3654 638.85253,527.3654 C 636.5347,515.08098 635.49174,509.51825 635.49174,506.04155 C 635.49174,505.3462 635.49174,504.65086 635.60764,504.07143 L 632.59447,503.26018 C 630.39254,509.05472 623.43913,531.53745 621.81663,577.31424 z M 619.38298,623.32275 C 622.16435,615.6739 624.36619,598.52219 625.06153,577.43005 C 626.22049,544.16949 630.16073,523.77279 633.05799,512.76324 C 633.52162,516.35585 634.33277,520.99142 635.72345,527.94484 L 639.54788,548.45744 C 640.59093,555.99038 641.17037,563.0597 641.17037,569.54949 C 641.17037,583.91993 638.50482,595.74073 633.40571,604.31663 C 629.92901,608.37287 629.11776,611.61776 629.11776,613.58788 C 629.11776,614.86265 629.46538,615.6739 629.58129,615.78981 L 630.27663,617.52821 L 631.78322,616.60105 C 632.01503,616.48515 635.60764,614.16731 640.59093,606.63447 L 642.32924,604.08491 C 649.05093,593.77061 666.89799,566.5364 677.21229,557.49697 C 687.5265,548.22572 696.45012,533.73938 702.8241,517.86234 C 702.93991,519.13721 703.05582,520.52789 703.05582,521.80267 C 703.05582,567.92709 668.8682,595.97254 653.68651,608.37287 L 651.9482,609.76355 C 640.70675,619.03479 622.39607,630.9715 614.28379,636.18651 C 616.2539,631.20322 619.38298,623.32275 619.38298,623.32275"
         style="fill:#ffffff;fill-rule:nonzero;stroke:none"
         id="path74" />
      <path
         d="M 654.96129,562.01664 C 654.96129,562.01664 664.11662,546.95086 672.46081,537.10017 C 680.8049,527.3654 717.77398,483.44292 696.45012,411.7067 C 696.79775,428.51088 694.82763,438.12975 693.08923,444.1561 C 691.35092,450.06645 673.61968,490.85995 671.99719,501.75359 C 670.25888,512.76324 667.59333,533.27585 663.18957,535.70949 C 661.68298,534.78243 663.53719,531.07392 664.00072,527.82893 C 664.58025,524.46813 669.33173,496.19086 652.17992,466.29111 C 636.65061,439.98406 633.75334,437.3185 631.4355,428.16316 C 631.08788,445.6626 637.69366,480.19802 642.32924,494.56837 C 647.19663,509.05472 659.94458,542.43119 654.96129,562.01664"
         style="fill:#104179;fill-rule:nonzero;stroke:none"
         id="path76" />
      <path
         d="M 694.82763,411.7067 C 694.82763,413.09738 694.82763,414.60397 694.82763,415.99465 C 694.82763,427.00429 693.78457,436.04373 691.58274,443.69248 L 685.7882,458.64236 C 679.76185,473.59224 671.53366,494.10485 670.37469,501.52187 L 669.91116,504.65086 C 669.09992,510.3295 667.59333,519.94846 665.73912,526.67006 C 666.08683,524.35222 666.66627,520.41199 666.66627,514.61745 C 666.66627,502.56484 664.34844,484.37007 653.4547,465.47986 C 653.4547,465.47986 642.67696,447.5169 642.67696,447.5169 C 636.41879,437.2026 634.56458,433.9577 632.94209,427.81554 L 629.6972,428.16316 C 629.46538,446.24212 636.30298,481.24099 640.82265,495.1479 L 642.67696,500.47882 C 647.89197,515.89223 657.74265,544.63311 653.4547,561.66902 L 656.35197,562.82789 C 656.46787,562.71198 665.50731,547.7621 673.73559,538.14323 C 703.28763,503.37609 711.86353,458.29473 697.95671,411.24317 L 694.82763,411.7067 z M 664.00072,537.10017 C 668.40458,534.66653 670.72241,521.10733 673.04025,505.11449 L 673.50378,502.10131 C 674.66265,494.91609 683.12264,473.82405 688.68547,459.80132 L 694.59582,444.61963 C 695.75478,440.56349 696.91365,433.49417 697.49309,423.99112 C 699.81092,434.30542 701.20161,444.50373 701.20161,454.47031 C 701.20161,484.60179 691.11911,512.76324 671.30185,536.05721 C 666.08683,542.19937 660.75582,550.07994 657.27912,555.41085 C 657.39503,554.13608 657.74265,553.09311 657.74265,551.81834 C 657.74265,534.66653 650.44161,513.22677 645.69004,499.43585 L 643.83583,494.10485 C 640.12731,482.51577 635.02811,456.78815 633.63743,438.12975 C 635.14402,441.02702 636.99832,444.27191 640.01141,449.13939 L 650.78924,467.10236 C 661.21935,485.41304 663.42128,502.91256 663.42128,514.50154 C 663.42128,520.99142 662.72594,525.74291 662.49422,527.48131 C 662.37832,527.48131 661.68298,530.49448 661.68298,530.49448 C 661.45117,531.88516 660.98764,533.15994 660.98764,534.31881 C 660.98764,535.47777 661.33526,536.52074 662.37832,537.10017 L 663.18957,537.5638 L 664.00072,537.10017"
         style="fill:#ffffff;fill-rule:nonzero;stroke:none"
         id="path78" />
      <path
         d="M 668.75229,473.82405 C 668.75229,473.82405 673.96731,450.53008 680.45719,431.87168 C 686.94707,413.21328 699.23149,369.98614 663.769,325.94784 C 671.41775,343.56318 668.8682,355.26807 668.98401,357.23819 C 668.98401,359.2084 665.50731,398.95875 665.73912,408.80952 C 665.85502,421.44156 668.75229,443.11304 668.75229,443.11304 C 668.75229,443.11304 667.94105,445.7785 666.20265,443.22895 C 665.04378,441.49055 662.14651,413.4451 644.87879,397.10453 C 628.77004,381.92294 615.79037,370.44976 612.19776,363.95988 C 612.42948,375.54896 619.4988,392.12124 625.06153,401.27658 C 630.62435,410.31601 653.4547,440.21577 658.78571,450.29827 C 664.00072,460.38076 668.75229,472.43337 668.75229,473.82405"
         style="fill:#104179;fill-rule:nonzero;stroke:none"
         id="path80" />
      <path
         d="M 662.26241,326.64318 C 666.89799,336.95739 667.70924,345.18558 667.70924,350.51659 C 667.70924,352.83442 667.59333,354.57273 667.47752,355.73169 L 666.55036,367.32068 L 664.11662,408.80952 C 664.11662,408.80952 665.97093,429.90156 666.78218,439.0569 C 664.81197,430.13328 660.17639,409.38896 645.92185,396.06157 C 645.92185,395.94566 637.11414,387.60148 637.11414,387.60148 C 625.52515,376.70783 616.36981,368.13193 613.58844,363.14863 L 610.57527,363.95988 C 610.80708,375.31715 617.52868,392.00534 623.67084,402.08783 L 636.88242,421.09385 C 645.1106,432.33521 654.26594,445.19907 657.27912,450.99361 C 662.72594,461.30782 667.01389,472.66509 667.1298,473.93995 L 670.37469,474.17167 C 670.37469,473.93995 675.5898,450.7618 681.96377,432.33521 C 695.9865,392.46896 690.30787,356.31113 664.92787,324.90478 L 662.26241,326.64318 z M 667.94105,445.89441 C 669.56354,445.6626 670.14298,443.92429 670.25888,443.57657 C 670.25888,443.57657 670.25888,443.57657 670.25888,443.57657 C 670.25888,442.3018 667.24571,408.80952 667.24571,408.80952 L 669.79526,367.6684 L 670.4906,357.23819 C 670.60651,355.49988 670.83832,353.29795 670.83832,350.6325 C 670.83832,346.80807 670.02707,341.47716 668.52048,335.68262 C 680.10956,352.83442 686.25173,371.37682 686.25173,391.30999 C 686.25173,404.17385 683.81799,417.50124 678.9506,431.29225 C 674.31502,444.61963 670.37469,460.14895 668.52048,468.02951 C 666.55036,462.93031 663.42128,455.62918 660.17639,449.48702 C 656.9314,443.46076 647.66025,430.5969 639.54788,419.23964 L 626.4523,400.34943 C 621.3531,392.12124 616.138,379.4892 614.39969,369.17499 C 618.68755,374.39 625.29334,380.87988 634.9123,390.03522 L 643.83583,398.26341 C 657.39503,411.12726 661.79888,431.29225 663.65309,439.86815 L 664.81197,444.0402 C 665.73912,445.43088 666.78218,446.01031 667.94105,445.89441"
         style="fill:#ffffff;fill-rule:nonzero;stroke:none"
         id="path82" />
      <path
         d="M 657.04731,395.36623 C 657.04731,395.36623 654.38185,389.10807 656.12025,363.38045 C 657.85856,337.53683 658.09037,302.42206 617.76049,279.70752 C 628.0747,296.2798 629.6972,299.17707 633.05799,312.73627 C 636.41879,326.17956 640.35912,347.85113 646.03776,360.01955 C 648.35559,366.0459 649.97799,370.68148 648.93503,371.26101 C 647.89197,371.95635 647.42844,370.79739 646.61719,368.82727 C 645.80595,366.74125 637.11414,348.54647 620.54186,337.30511 C 603.73776,325.94784 588.67198,314.59057 582.87744,303.2333 C 585.6588,324.55716 594.0029,331.9741 602.34708,342.52012 C 611.38652,353.9933 643.60402,377.63498 649.16675,385.39964 C 654.84538,393.28011 657.04731,395.36623 657.04731,395.36623"
         style="fill:#104179;fill-rule:nonzero;stroke:none"
         id="path84" />
      <path
         d="M 616.36981,280.63467 C 626.79993,297.32286 628.30651,299.98832 631.55141,313.08398 L 633.98515,323.74591 C 636.88242,336.60977 640.12731,351.21193 644.53117,360.71489 C 644.76298,361.29442 645.22651,362.45329 645.57423,363.38045 C 641.86571,356.65875 634.10105,344.49024 621.3531,335.91443 C 605.47607,325.2525 589.94676,313.66342 584.26812,302.53796 L 581.25495,303.46502 C 583.80459,322.35523 590.52619,330.58342 597.82732,339.39113 L 601.07221,343.44727 C 605.9396,349.70534 617.06515,358.97659 627.61117,368.01602 C 636.76651,375.66477 645.34242,382.85 647.89197,386.44261 L 656.00434,396.5251 L 658.5539,394.67089 C 658.43799,394.67089 656.00434,388.18101 657.74265,363.49635 C 659.13333,342.1725 661.79888,302.65378 618.57174,278.31683 L 616.36981,280.63467 z M 649.74627,372.53579 C 650.44161,372.18807 650.78924,371.49273 650.78924,370.44976 C 650.78924,368.59546 649.74627,365.35056 647.54434,359.44012 C 643.25639,350.28478 639.89559,335.10318 637.11414,323.05057 L 634.56458,312.27274 C 631.78322,300.91547 629.8131,296.51161 623.55503,286.08149 C 649.05093,303.69683 655.07719,326.64318 655.07719,349.01 C 655.07719,353.87739 654.84538,358.62887 654.61366,363.26454 C 654.15004,369.75442 654.03423,374.96943 654.03423,379.14148 C 654.03423,383.77715 654.15004,386.90614 654.49776,389.45578 C 652.52764,387.02204 650.55743,384.58839 650.55743,384.58839 C 647.77606,380.76397 639.43197,373.69466 629.6972,365.58237 C 619.6147,357.12238 608.25743,347.50341 603.50595,341.59297 L 600.26106,337.42092 C 594.23471,330.00398 589.0196,323.16648 586.00652,310.65024 C 593.07584,319.57387 604.54892,328.49739 619.6147,338.57989 C 636.76651,350.28478 645.1106,369.2908 645.22651,369.4067 C 645.92185,371.26101 646.38538,372.53579 647.66025,372.88341 L 648.35559,373.23113 L 649.74627,372.53579"
         style="fill:#ffffff;fill-rule:nonzero;stroke:none"
         id="path86" />
      <path
         d="M 625.64105,327.91796 C 625.64105,327.91796 619.84651,300.91547 608.95278,285.03843 C 598.29085,269.16149 576.27165,255.48639 553.3254,248.99651 C 561.43768,255.48639 566.42097,261.39684 569.31824,266.14832 C 572.21551,270.8998 590.17857,297.43876 598.29085,305.78286 C 606.51913,314.24286 619.73061,321.54398 625.64105,327.91796"
         style="fill:#104179;fill-rule:nonzero;stroke:none"
         id="path88" />
      <path
         d="M 552.28234,250.27129 C 561.09005,257.10888 565.60973,263.13514 567.92756,266.95957 C 570.70892,271.59514 588.78788,298.36592 597.24788,306.94173 C 597.24788,306.94173 612.7772,319.57387 612.7772,319.57387 L 624.598,328.96092 L 627.26346,327.57024 C 627.03174,326.41137 621.2372,300.10422 610.34346,284.11137 C 599.56563,268.35025 577.89415,254.32752 553.78893,247.48992 L 552.28234,250.27129 z M 614.63141,317.02422 L 599.44981,304.62399 C 591.33744,296.39571 573.37438,269.62502 570.70892,265.33707 C 568.27528,261.39684 564.56676,257.3406 560.27881,253.16856 C 580.67551,260.46968 598.52266,272.40639 607.678,285.96559 C 615.55856,297.55467 620.88948,315.40173 622.9755,323.74591 C 619.4988,320.84864 614.63141,317.02422 614.63141,317.02422"
         style="fill:#ffffff;fill-rule:nonzero;stroke:none"
         id="path90" />
 
</svg>
