<?xml version="1.0" encoding="utf-8"?>
<!-- Generator: Adobe Illustrator 15.0.0, SVG Export Plug-In . SVG Version: 6.00 Build 0)  -->
<!DOCTYPE svg PUBLIC "-//W3C//DTD SVG 1.1//EN" "http://www.w3.org/Graphics/SVG/1.1/DTD/svg11.dtd">
<svg version="1.1" xmlns="http://www.w3.org/2000/svg" xmlns:xlink="http://www.w3.org/1999/xlink" x="0px" y="0px" width="600px"
	 height="632.571px" viewBox="0 0 600 632.571" enable-background="new 0 0 600 632.571" xml:space="preserve">
<g id="Linear_Logo">
</g>
<g id="Stack_Logo">
	<g>
		<linearGradient id="SVGID_1_" gradientUnits="userSpaceOnUse" x1="278.5469" y1="285.0332" x2="284.2409" y2="262.2563">
			<stop  offset="0" style="stop-color:#032E6C"/>
			<stop  offset="1" style="stop-color:#00A6FF"/>
		</linearGradient>
		<path fill="url(#SVGID_1_)" d="M258.497,237.679c0,0-9.36,18.582,3.441,41.294c0,0,19.682,14.818,48.313,8.946
			c0,0-31.151-1.925-24.361-24.684C285.89,263.235,270.975,234.926,258.497,237.679z"/>
		<linearGradient id="SVGID_2_" gradientUnits="userSpaceOnUse" x1="288.8081" y1="238.5347" x2="297.9072" y2="224.1967">
			<stop  offset="0" style="stop-color:#032E6C"/>
			<stop  offset="1" style="stop-color:#00A6FF"/>
		</linearGradient>
		<path fill="url(#SVGID_2_)" d="M281.62,214.279c0,0,6.885,10.278,5.416,21.29c0,0,7.523,9.726,16.701,7.523
			c9.176-2.203,13.766-12.848,10.095-21.473S293.457,209.507,281.62,214.279z"/>
		<radialGradient id="SVGID_3_" cx="258.8115" cy="259.2891" r="14.8234" gradientUnits="userSpaceOnUse">
			<stop  offset="0.3879" style="stop-color:#A5A5A5"/>
			<stop  offset="1" style="stop-color:#FFFFFF"/>
		</radialGradient>
		<path fill="url(#SVGID_3_)" d="M257.946,238.643c0,0-3.419,10.983-1.446,22.643c1.928,11.376,5.943,18.65,5.943,18.65
			s-4.635-5.919-6.698-18.122C253.769,250.121,257.578,240.337,257.946,238.643z"/>
		<radialGradient id="SVGID_4_" cx="306.0361" cy="250.3145" r="43.0282" gradientUnits="userSpaceOnUse">
			<stop  offset="0.0242" style="stop-color:#FFFFFF"/>
			<stop  offset="1" style="stop-color:#A5A5A5"/>
		</radialGradient>
		<path fill="url(#SVGID_4_)" d="M281.62,214.279c0,0,8.534-4.68,23.675-3.579c15.142,1.101,35.513,14.59,37.99,39.366
			c0,0-9.279,26.399-50.928,15.691c-24.088-6.193-34.411-27.115-34.411-27.115s3.992-9.223,12.388-16.38
			c0,0,7.517,1.381,17.253,10.921c9.177,8.992,14.68,10.276,19.772,6.973c5.094-3.304,9.361-9.635,4.268-17.481
			C306.534,214.83,293.045,210.563,281.62,214.279z M261.342,277.871c0,0,11.7,21.06,35.374,21.06
			c23.676,0,34.962-13.488,40.606-22.85c0,0-10.736,12.663-40.331,12.663C271.527,288.744,261.342,277.871,261.342,277.871z"/>
		<radialGradient id="SVGID_5_" cx="296.7397" cy="226.5762" r="18.8324" gradientUnits="userSpaceOnUse">
			<stop  offset="0" style="stop-color:#A5A5A5"/>
			<stop  offset="1" style="stop-color:#FFFFFF"/>
		</radialGradient>
		<path fill="url(#SVGID_5_)" d="M316.561,226.347c2.386,7.34-2.845,16.012-11.516,17.388c-9.053,1.437-12.754-3.993-19.362-10.966
			c-6.606-6.973-15.278-10.644-15.278-10.644s7.517,1.38,17.253,10.92c9.177,8.993,14.68,10.276,19.774,6.973
			c5.093-3.304,9.359-9.635,4.268-17.481c-5.094-7.846-18.583-12.112-30.008-8.396C300.871,208.085,314.063,218.661,316.561,226.347
			z"/>
		<linearGradient id="SVGID_6_" gradientUnits="userSpaceOnUse" x1="260.791" y1="282.9844" x2="307.2227" y2="282.9844">
			<stop  offset="0.0242" style="stop-color:#FFFFFF"/>
			<stop  offset="1" style="stop-color:#A5A5A5"/>
		</linearGradient>
		<path fill="url(#SVGID_6_)" d="M260.791,276.814c0,0,0.735,1.837,1.652,3.121c0,0,14.956,12.574,44.779,8.352
			C307.223,288.287,280.062,290.121,260.791,276.814z"/>
		<radialGradient id="SVGID_7_" cx="274.6006" cy="251.6719" r="18.7727" gradientUnits="userSpaceOnUse">
			<stop  offset="0.3091" style="stop-color:#A5A5A5"/>
			<stop  offset="1" style="stop-color:#FFFFFF"/>
		</radialGradient>
		<path fill="url(#SVGID_7_)" d="M258.497,237.679c0,0-0.46,0.734-0.919,2.478c0,0,10.005,19.084,34.045,25.508
			C291.623,265.665,267.396,257.131,258.497,237.679z"/>
		<g opacity="0.3">
			<defs>
				<path id="SVGID_8_" opacity="0.3" d="M329.796,220.06c0,0-25.877-7.157-30.832,0.551c-4.956,7.708-8.442,16.426-8.442,16.426
					s-8.995-8.441-14.684-4.036c-7.196,5.57-5.781,16.792-4.955,21.472l6.056,27.252c0,0-1.376,12.388,19.821,18.168
					c0,0-37.16,0.667-42.395-39.365c-4.681-35.788,30.282-48.727,36.889-50.103C297.863,209.049,316.584,208.223,329.796,220.06z"/>
			</defs>
			<clipPath id="SVGID_9_">
				<use xlink:href="#SVGID_8_"  overflow="visible"/>
			</clipPath>
			<path clip-path="url(#SVGID_9_)" fill="#FFFFFF" d="M281.62,214.279c0,0,8.534-4.68,23.675-3.579
				c15.142,1.101,35.513,14.59,37.99,39.366c0,0-9.279,26.399-50.928,15.691c-24.088-6.193-34.411-27.115-34.411-27.115
				s3.992-9.223,12.388-16.38c0,0,7.517,1.381,17.253,10.921c9.177,8.992,14.68,10.276,19.772,6.973
				c5.094-3.304,9.361-9.635,4.268-17.481C306.534,214.83,293.045,210.563,281.62,214.279z M261.342,277.871
				c0,0,11.7,21.06,35.374,21.06c23.676,0,34.962-13.488,40.606-22.85c0,0-10.736,12.663-40.331,12.663
				C271.527,288.744,261.342,277.871,261.342,277.871z"/>
		</g>
	</g>
	
		<radialGradient id="SVGID_10_" cx="298.6113" cy="298.4844" r="57.9068" gradientTransform="matrix(1 0 0 0.1356 0 258.012)" gradientUnits="userSpaceOnUse">
		<stop  offset="0.0242" style="stop-color:#03306E"/>
		<stop  offset="1" style="stop-color:#FEFEFE;stop-opacity:0"/>
	</radialGradient>
	<ellipse fill="url(#SVGID_10_)" cx="298.611" cy="298.485" rx="59.216" ry="7.852"/>
	<g>
		<linearGradient id="SVGID_11_" gradientUnits="userSpaceOnUse" x1="204.6763" y1="346.4512" x2="204.6763" y2="312.0999">
			<stop  offset="0" style="stop-color:#032E6C"/>
			<stop  offset="1" style="stop-color:#00A6FF"/>
		</linearGradient>
		<path fill="url(#SVGID_11_)" d="M183.265,320.624v-0.563c0-2.498,0.831-4.632,2.495-6.4c1.663-1.771,3.69-2.655,6.079-2.655
			l25.676,0.063l8.574-0.063v9.618h-30.257h-2.404H183.265z M220.1,337.487h5.988v9.869h-8.574h-25.676
			c-2.389,0-4.416-0.884-6.079-2.656c-1.664-1.767-2.495-3.902-2.495-6.4v-13.553h42.823v8.617h-36.019v4.123h5.716h17.873H220.1z"
			/>
		<linearGradient id="SVGID_12_" gradientUnits="userSpaceOnUse" x1="239.8247" y1="346.4541" x2="239.8247" y2="312.0961">
			<stop  offset="0" style="stop-color:#032E6C"/>
			<stop  offset="1" style="stop-color:#00A6FF"/>
		</linearGradient>
		<path fill="url(#SVGID_12_)" d="M232.305,332.103v-6.017h15.04v6.017h-12.697H232.305z"/>
		<linearGradient id="SVGID_13_" gradientUnits="userSpaceOnUse" x1="265.8999" y1="346.4512" x2="265.8999" y2="312.0994">
			<stop  offset="0" style="stop-color:#032E6C"/>
			<stop  offset="1" style="stop-color:#00A6FF"/>
		</linearGradient>
		<path fill="url(#SVGID_13_)" d="M250.955,323.208v-0.392c0-1.744,0.58-3.232,1.741-4.468c1.16-1.236,2.576-1.854,4.243-1.854
			l17.922,0.044l5.984-0.044v6.714h-21.119h-1.679H250.955z M250.955,335.153v6.714h5.984l17.922-0.044
			c1.71,0.029,3.134-0.515,4.274-1.635c1.14-1.117,1.709-2.797,1.709-5.035v-2.876c0-2.209-0.502-3.764-1.503-4.665
			c-1.003-0.902-2.507-1.354-4.513-1.354h-19.125h-4.75c0.042,1.978,0.591,3.462,1.646,4.448c1.055,0.99,2.491,1.513,4.307,1.57
			h18.997v2.876H250.955z"/>
		<linearGradient id="SVGID_14_" gradientUnits="userSpaceOnUse" x1="299.1777" y1="346.4512" x2="299.1777" y2="312.0994">
			<stop  offset="0" style="stop-color:#032E6C"/>
			<stop  offset="1" style="stop-color:#00A6FF"/>
		</linearGradient>
		<path fill="url(#SVGID_14_)" d="M284.233,323.208v-0.392c0-1.744,0.58-3.232,1.741-4.468c1.16-1.236,2.575-1.854,4.243-1.854
			l17.922,0.044l5.983-0.044v6.714h-21.118h-1.679H284.233z M309.943,334.979h4.179v6.888h-5.983h-17.922
			c-1.667,0-3.083-0.617-4.243-1.854c-1.161-1.233-1.741-2.724-1.741-4.467v-9.46h29.889v6.017h-25.14v2.877h3.989h12.475H309.943z"
			/>
		<linearGradient id="SVGID_15_" gradientUnits="userSpaceOnUse" x1="332.4561" y1="346.4512" x2="332.4561" y2="312.0994">
			<stop  offset="0" style="stop-color:#032E6C"/>
			<stop  offset="1" style="stop-color:#00A6FF"/>
		</linearGradient>
		<path fill="url(#SVGID_15_)" d="M322.26,341.867h-4.749v-18.659v-6.714h5.984l17.921,0.044c1.668,0,3.083,0.619,4.244,1.854
			c1.16,1.236,1.741,2.724,1.741,4.468v12.687v6.321h-4.749l0.031-10.462v-4.883c-0.147-0.873-0.592-1.644-1.331-2.312
			c-0.738-0.668-1.666-1.003-2.785-1.003h-12.286h-4.085l0.063,8.284v3.487V341.867z"/>
		<linearGradient id="SVGID_16_" gradientUnits="userSpaceOnUse" x1="365.7354" y1="346.4512" x2="365.7354" y2="312.0994">
			<stop  offset="0" style="stop-color:#032E6C"/>
			<stop  offset="1" style="stop-color:#00A6FF"/>
		</linearGradient>
		<path fill="url(#SVGID_16_)" d="M350.79,323.208v-0.392c0-1.744,0.579-3.232,1.741-4.468c1.16-1.236,2.575-1.854,4.243-1.854
			l17.921,0.044l5.985-0.044v6.714H359.56h-1.678H350.79z M350.79,335.153v6.714h5.984l17.921-0.044
			c1.71,0.029,3.134-0.515,4.275-1.635c1.139-1.117,1.71-2.797,1.71-5.035v-2.876c0-2.209-0.502-3.764-1.504-4.665
			c-1.004-0.902-2.509-1.354-4.512-1.354h-19.127h-4.748c0.041,1.978,0.59,3.462,1.646,4.448c1.055,0.99,2.49,1.513,4.306,1.57
			h18.999v2.876H350.79z"/>
		<linearGradient id="SVGID_17_" gradientUnits="userSpaceOnUse" x1="399.0137" y1="346.4512" x2="399.0137" y2="312.0994">
			<stop  offset="0" style="stop-color:#032E6C"/>
			<stop  offset="1" style="stop-color:#00A6FF"/>
		</linearGradient>
		<path fill="url(#SVGID_17_)" d="M384.068,323.208v-0.392c0-1.744,0.579-3.232,1.74-4.468c1.16-1.236,2.575-1.854,4.244-1.854
			l17.92,0.044l5.985-0.044v6.714h-21.119h-1.68H384.068z M409.778,334.979h4.18v6.888h-5.985h-17.92
			c-1.669,0-3.084-0.617-4.244-1.854c-1.161-1.233-1.74-2.724-1.74-4.467v-9.46h29.89v6.017h-25.142v2.877h3.99h12.476H409.778z"/>
	</g>
	<g>
		<g>
			<path fill="#00A6FF" d="M226.363,347.608h-34.525c-2.458,0-4.571-0.923-6.279-2.742c-1.705-1.812-2.569-4.028-2.569-6.59v-13.828
				h43.374v9.169h-36.019v3.571h36.019V347.608z M183.541,324.999v13.277c0,2.416,0.814,4.506,2.419,6.212
				c1.601,1.705,3.578,2.569,5.878,2.569h33.974v-9.318h-36.019v-4.673h36.019v-8.067H183.541z M226.363,320.877H182.99v-0.838
				c0-2.561,0.865-4.777,2.569-6.59c1.709-1.819,3.822-2.742,6.279-2.742l25.677,0.063l8.848-0.066V320.877z M183.541,320.325
				h42.271v-9.064l-8.296,0.061l-25.679-0.063c-2.298,0-4.275,0.864-5.877,2.569c-1.605,1.707-2.419,3.796-2.419,6.212V320.325z"/>
		</g>
		<g>
			<path fill="#00A6FF" d="M247.621,332.354h-15.591v-6.567h15.591V332.354z M232.581,331.804h14.489v-5.466h-14.489V331.804z"/>
		</g>
		<g>
			<path fill="#00A6FF" d="M256.939,342.119h-6.26v-7.265h24.95v-2.325h-18.722c-1.885-0.059-3.395-0.611-4.495-1.644
				c-1.107-1.034-1.69-2.597-1.733-4.644l-0.006-0.281h24.155c2.066,0,3.646,0.479,4.697,1.424c1.059,0.951,1.595,2.59,1.595,4.869
				v2.877c0,2.306-0.603,4.065-1.792,5.231c-1.157,1.138-2.617,1.714-4.338,1.714l-0.134-0.001L256.939,342.119z M251.23,341.568
				h5.708l17.922-0.044l0.13,0.001c1.571,0,2.9-0.522,3.952-1.557c1.08-1.058,1.627-2.686,1.627-4.838v-2.877
				c0-2.116-0.475-3.617-1.413-4.46c-0.946-0.851-2.402-1.282-4.328-1.282h-23.589c0.085,1.754,0.605,3.089,1.55,3.972
				c1,0.938,2.389,1.44,4.127,1.495h19.265v3.428H251.23V341.568z M281.121,323.461h-30.441v-0.667c0-1.81,0.611-3.376,1.816-4.657
				c1.208-1.287,2.704-1.94,4.443-1.94l17.923,0.044l6.259-0.046V323.461z M251.23,322.909h29.339v-6.16l-5.707,0.042l-17.925-0.045
				c-1.581,0-2.941,0.595-4.041,1.769c-1.106,1.175-1.667,2.615-1.667,4.279V322.909z"/>
		</g>
		<g>
			<path fill="#00A6FF" d="M314.397,342.119h-24.181c-1.74,0-3.235-0.652-4.443-1.94c-1.205-1.28-1.816-2.847-1.816-4.656v-9.735
				h30.44v6.567h-25.14v2.326h25.14V342.119z M284.508,326.338v9.185c0,1.665,0.561,3.104,1.667,4.278
				c1.101,1.173,2.46,1.768,4.042,1.768h23.63v-6.336h-25.14v-3.429h25.14v-5.466H284.508z M314.397,323.461h-30.44v-0.667
				c0-1.81,0.611-3.376,1.816-4.657c1.208-1.287,2.704-1.94,4.443-1.94l17.922,0.044l6.259-0.046V323.461z M284.508,322.909h29.338
				v-6.16l-5.706,0.042l-17.925-0.045c-1.581,0-2.94,0.595-4.041,1.769c-1.106,1.175-1.667,2.615-1.667,4.279V322.909z"/>
		</g>
		<g>
			<path fill="#00A6FF" d="M347.676,342.119h-5.3l0.031-15.62c-0.132-0.76-0.55-1.483-1.238-2.106
				c-0.685-0.618-1.56-0.932-2.602-0.932h-16.093l0.061,11.495v7.163h-5.3v-25.923h6.26l17.921,0.044
				c1.738,0,3.234,0.652,4.444,1.939c1.205,1.284,1.815,2.85,1.815,4.657V342.119z M342.929,341.568h4.196v-18.731
				c0-1.662-0.561-3.103-1.666-4.279c-1.103-1.173-2.463-1.767-4.043-1.767l-23.63-0.045v24.822h4.198v-10.1l-0.065-8.56h16.648
				c1.183,0,2.183,0.362,2.97,1.075c0.784,0.708,1.261,1.539,1.418,2.469l0.003,4.929L342.929,341.568z"/>
		</g>
		<g>
			<path fill="#00A6FF" d="M356.774,342.119h-6.261v-7.265h24.951v-2.325h-18.723c-1.885-0.059-3.395-0.611-4.495-1.644
				c-1.106-1.034-1.689-2.597-1.733-4.644l-0.006-0.281h24.157c2.065,0,3.646,0.479,4.694,1.424c1.06,0.95,1.597,2.589,1.597,4.869
				v2.877c0,2.306-0.604,4.064-1.793,5.231c-1.158,1.138-2.618,1.714-4.338,1.714l-0.135-0.001L356.774,342.119z M351.064,341.568
				h5.709l17.921-0.044l0.131,0.001c1.57,0,2.899-0.522,3.952-1.557c1.08-1.06,1.627-2.687,1.627-4.838v-2.877
				c0-2.117-0.475-3.617-1.412-4.46c-0.946-0.851-2.401-1.282-4.327-1.282h-23.591c0.085,1.754,0.605,3.089,1.55,3.972
				c1,0.938,2.389,1.44,4.127,1.495h19.265v3.428h-24.951V341.568z M380.956,323.461h-30.442v-0.667c0-1.81,0.611-3.376,1.817-4.657
				c1.208-1.287,2.703-1.94,4.443-1.94l17.922,0.044l6.26-0.046V323.461z M351.064,322.909h29.34v-6.16l-5.707,0.042l-17.924-0.045
				c-1.581,0-2.94,0.595-4.041,1.769c-1.107,1.175-1.668,2.615-1.668,4.279V322.909z"/>
		</g>
		<g>
			<path fill="#00A6FF" d="M414.233,342.119h-24.181c-1.741,0-3.235-0.652-4.444-1.94c-1.205-1.278-1.816-2.846-1.816-4.656v-9.735
				h30.441v6.567h-25.142v2.326h25.142V342.119z M384.343,326.338v9.185c0,1.665,0.561,3.105,1.667,4.278
				c1.101,1.173,2.461,1.768,4.043,1.768h23.629v-6.336h-25.141v-3.429h25.141v-5.466H384.343z M414.233,323.461h-30.441v-0.667
				c0-1.811,0.611-3.377,1.816-4.657c1.209-1.287,2.703-1.94,4.444-1.94l17.921,0.044l6.26-0.046V323.461z M384.343,322.909h29.339
				v-6.16l-5.707,0.042l-17.922-0.045c-1.582,0-2.942,0.595-4.043,1.769c-1.106,1.175-1.667,2.614-1.667,4.279V322.909z"/>
		</g>
	</g>
	<g>
		<g>
			<path fill="#1A1A1A" d="M207.465,361.752h-2.682v-7.653v-2.754h2.682v2.754v1.144v2.254V361.752z"/>
			<path fill="#1A1A1A" d="M219.141,361.752h-2.682v-7.653h-3.04h-4.005v-2.754h3.38l10.12,0.019l3.38-0.019v2.754h-7.153V361.752z"
				/>
			<path fill="#1A1A1A" d="M238.935,353.937c0-0.715,0.328-1.325,0.983-1.832c0.655-0.507,1.454-0.76,2.396-0.76l10.12,0.019
				l3.379-0.019v2.754h-11.926h-2.271v1.251h10.8c1.132,0,1.982,0.186,2.548,0.555c0.566,0.368,0.85,1.008,0.85,1.912v1.182
				c0,0.918-0.322,1.606-0.965,2.064c-0.644,0.459-1.455,0.689-2.432,0.689h-10.102h-3.38v-2.754h14.09v-1.182h-10.729
				c-1.025-0.023-1.835-0.238-2.432-0.643c-0.596-0.405-0.906-1.013-0.93-1.824v-0.716V353.937z"/>
			<path fill="#1A1A1A" d="M257.727,359.158v-5.222c0-0.715,0.328-1.325,0.984-1.832c0.655-0.507,1.454-0.76,2.396-0.76l10.12,0.019
				c0.942,0,1.741,0.253,2.396,0.758c0.655,0.508,0.983,1.119,0.983,1.832v5.205c0,0.716-0.328,1.327-0.983,1.833
				c-0.656,0.508-1.455,0.761-2.396,0.761h-10.12c-0.942,0-1.741-0.253-2.396-0.761
				C258.055,360.485,257.727,359.874,257.727,359.158z M271.943,357.459v-2.002c-0.083-0.357-0.334-0.674-0.751-0.947
				c-0.418-0.274-0.943-0.411-1.574-0.411h-6.938c-0.632,0-1.162,0.137-1.591,0.411c-0.43,0.273-0.656,0.602-0.68,0.983v2.003
				c0,0.38,0.214,0.715,0.644,1.001c0.429,0.286,0.965,0.428,1.609,0.428h6.956c0.631,0,1.176-0.145,1.637-0.438
				C271.713,358.196,271.943,357.854,271.943,357.459z"/>
			<path fill="#1A1A1A" d="M291.039,358.925h2.361v2.827h-3.379H279.9c-0.942,0-1.741-0.253-2.396-0.761
				c-0.656-0.506-0.983-1.117-0.983-1.833v-5.222v-2.592h2.682v4.148v2.003c0,0.38,0.214,0.715,0.645,1.001
				c0.427,0.286,0.964,0.428,1.608,0.428h7.045H291.039z"/>
			<path fill="#1A1A1A" d="M309.528,357.459v-2.002l-0.019-4.112h2.682v2.608v5.205c0,0.716-0.329,1.327-0.982,1.833
				c-0.656,0.508-1.456,0.761-2.396,0.761h-10.121c-0.942,0-1.741-0.253-2.396-0.761c-0.656-0.506-0.983-1.117-0.983-1.833v-7.813
				h2.682v6.151c0,0.38,0.214,0.715,0.644,1.001c0.429,0.286,0.965,0.428,1.608,0.428h7.046c0.571,0,1.087-0.145,1.546-0.438
				C309.297,358.196,309.528,357.854,309.528,357.459z"/>
			<path fill="#1A1A1A" d="M323.831,361.752h-2.682v-7.653h-3.04h-4.005v-2.754h3.379l10.121,0.019l3.379-0.019v2.754h-7.152
				V361.752z"/>
			<path fill="#1A1A1A" d="M335.579,361.752h-2.683v-7.653v-2.754h2.683v2.754v1.144v2.254V361.752z"/>
			<path fill="#1A1A1A" d="M337.528,359.158v-5.222c0-0.715,0.329-1.325,0.983-1.832c0.655-0.507,1.453-0.76,2.396-0.76l10.12,0.019
				c0.94,0,1.74,0.253,2.396,0.758c0.656,0.508,0.984,1.119,0.984,1.832v5.205c0,0.716-0.328,1.327-0.984,1.833
				c-0.655,0.508-1.455,0.761-2.396,0.761h-10.12c-0.943,0-1.741-0.253-2.396-0.761
				C337.857,360.485,337.528,359.874,337.528,359.158z M351.743,357.459v-2.002c-0.083-0.357-0.334-0.674-0.752-0.947
				c-0.417-0.274-0.941-0.411-1.573-0.411h-6.937c-0.633,0-1.162,0.137-1.592,0.411c-0.43,0.273-0.654,0.602-0.679,0.983v2.003
				c0,0.38,0.214,0.715,0.644,1.001c0.429,0.286,0.965,0.428,1.609,0.428h6.954c0.632,0,1.179-0.145,1.638-0.438
				C351.514,358.196,351.743,357.854,351.743,357.459z"/>
			<path fill="#1A1A1A" d="M370.518,358.925v-3.575v-4.005h2.683v7.813v2.594h-2.683l-11.479-7.653h-2.719v-2.754h2.754
				L370.518,358.925z M356.32,355.35v6.402h2.684v-3.828v-2.574H356.32z"/>
		</g>
		<g>
			<path fill="#1A1A1A" d="M381.982,353.078c0,0.271-0.095,0.502-0.285,0.691c-0.189,0.19-0.42,0.284-0.69,0.284h-2.348v1.713
				h-0.975v-2.688h3.221c0.03,0,0.056-0.01,0.073-0.027c0.02-0.019,0.028-0.041,0.028-0.068v-0.539c0-0.064-0.034-0.097-0.102-0.097
				h-3.221v-0.976h3.322c0.265,0,0.492,0.095,0.687,0.285c0.192,0.188,0.289,0.42,0.289,0.69V353.078z"/>
			<path fill="#1A1A1A" d="M387.379,351.371l-1.881,4.029c-0.067,0.141-0.164,0.25-0.289,0.325
				c-0.126,0.075-0.269,0.111-0.432,0.111c-0.166,0-0.311-0.034-0.435-0.106c-0.124-0.071-0.219-0.181-0.287-0.33l-1.875-4.029
				h1.123l1.388,2.968c0.017,0.041,0.046,0.062,0.086,0.062c0.047,0,0.076-0.021,0.086-0.062l1.392-2.968H387.379z"/>
			<path fill="#1A1A1A" d="M392.054,352.347h-4.395v-0.976h4.395V352.347z M390.347,355.767h-0.975v-2.932h0.975V355.767z"/>
			<path fill="#1A1A1A" d="M392.439,355.767h-0.975v-0.976h0.975V355.767z"/>
			<path fill="#1A1A1A" d="M381.597,361.864h-2.933c-0.271,0-0.501-0.096-0.689-0.285c-0.191-0.188-0.285-0.42-0.285-0.69v-3.42
				h0.975v3.318c0,0.029,0.01,0.055,0.028,0.074c0.019,0.018,0.041,0.027,0.069,0.027h2.835V361.864z"/>
			<path fill="#1A1A1A" d="M384.756,358.445h-4.395v-0.977h4.395V358.445z M383.049,361.864h-0.974v-2.933h0.974V361.864z"/>
			<path fill="#1A1A1A" d="M389.727,359.664c0,0.645-0.082,1.148-0.244,1.515c-0.203,0.457-0.528,0.686-0.977,0.686h-3.174v-4.396
				h3.174c0.469,0,0.801,0.229,0.997,0.686C389.651,358.504,389.727,359.007,389.727,359.664z M388.729,359.664
				c0-0.399-0.022-0.703-0.07-0.91c-0.047-0.206-0.131-0.309-0.254-0.309h-2.099v2.443h2.099c0.118,0,0.202-0.106,0.251-0.32
				C388.706,360.355,388.729,360.054,388.729,359.664z"/>
			<path fill="#1A1A1A" d="M391.571,361.864h-0.976v-0.976h0.976V361.864z"/>
		</g>
	</g>
</g>
</svg>
