<?xml version="1.0" encoding="UTF-8" standalone="no"?>
<!-- Created with Inkscape (http://www.inkscape.org/) -->

<svg
   xmlns:dc="http://purl.org/dc/elements/1.1/"
   xmlns:cc="http://creativecommons.org/ns#"
   xmlns:rdf="http://www.w3.org/1999/02/22-rdf-syntax-ns#"
   xmlns:svg="http://www.w3.org/2000/svg"
   xmlns="http://www.w3.org/2000/svg"
   version="1.0"
   width="50"
   height="50"
   viewBox="0 0 50 50"
   id="Layer_1"
   xml:space="preserve"><metadata
   id="metadata11"><rdf:RDF><cc:Work
       rdf:about=""><dc:format>image/svg+xml</dc:format><dc:type
         rdf:resource="http://purl.org/dc/dcmitype/StillImage" /><dc:title></dc:title></cc:Work></rdf:RDF></metadata><defs
   id="defs9" />
<path
   d="m 13.033,8.521 c 0,0 9.499,13.65 11.269,13.108 1.769,-0.54 3.681,-6.259 12.666,-13.182"
   id="path3"
   style="fill:none;stroke:#000000;stroke-width:2;stroke-linecap:round;stroke-linejoin:round" />
<path
   d="m 24.301,41.553 c 0,0 -0.693,-13.487 -0.03,-19.822"
   id="path5"
   style="fill:none;stroke:#000000;stroke-width:2;stroke-linecap:round;stroke-linejoin:round" />
<path
   d="m 33.959937,25.584793 c -1.215803,0.31054 -4.327307,2.221176 0.302352,-0.423388 -0.54576,0.368577 -1.138069,0.689055 -1.566405,1.198257 -0.299978,0.413989 -0.344869,0.910278 -0.372389,1.404122 -0.01057,0.526162 -0.02905,1.055138 0.01228,1.580208 0.07646,0.529111 0.227989,1.043036 0.31849,1.570461 0.127478,0.598216 0.182825,1.207382 0.278567,1.810294 0.120236,0.527977 0.129097,1.073912 0.281361,1.593996 0.198799,0.52208 0.366356,1.053641 0.535046,1.586052 0.142138,0.536552 0.242426,1.085689 0.340913,1.632291 0.146734,0.650623 0.530017,1.193383 0.978694,1.672224 0.518767,0.505481 1.092752,0.94611 1.71684,1.312205 0.308435,0.220944 0.674208,0.334048 1.003114,0.516474 0.296329,0.164357 0.55763,0.326439 0.873214,0.454166 0.51917,0.175031 1.04518,0.0447 1.545064,-0.129814 0.60199,-0.213252 1.20355,-0.423903 1.804181,-0.640508 0.563621,-0.20891 1.1484,-0.374618 1.682127,-0.654552 0.992131,-0.539771 1.212378,-0.662521 -2.052714,1.186403 -0.10207,0.0578 0.201208,-0.120834 0.298494,-0.186367 0.252389,-0.170016 0.469002,-0.365853 0.681841,-0.581616 0.294234,-0.373581 0.549806,-0.782126 0.72894,-1.223246 0.19977,-0.491892 0.297563,-1.008689 0.348253,-1.53446 0.0109,-0.599385 -0.08913,-1.192792 -0.124526,-1.79008 -0.109577,-0.687268 -0.147101,-1.382557 -0.229637,-2.072782 -0.101099,-0.762849 -0.159625,-1.529696 -0.262507,-2.292331 -0.122306,-0.672067 -0.441177,-1.280287 -0.633108,-1.930914 -0.15733,-0.578731 -0.287314,-1.166749 -0.600684,-1.6836 -0.344353,-0.524136 -0.92271,-0.740427 -1.47357,-0.977153 -0.566694,-0.259956 -1.16628,-0.419435 -1.75454,-0.615879 -0.561081,-0.149928 -1.124299,-0.283257 -1.699467,-0.367008 -0.509827,-0.126992 -0.990007,-0.333749 -1.507955,-0.433407 -0.51843,-0.03247 -1.027663,-0.114506 -1.541516,-0.187269 -0.505328,-0.05254 -1.01971,-0.125144 -1.525472,-0.05407 -0.07608,0.02532 -0.152122,0.05074 -0.228231,0.07597 -0.214817,0.0712 -0.247561,0.0708 -0.447324,0.179409 -0.07273,0.03954 -0.283653,0.170774 -0.211679,0.129877 2.453218,-1.393957 3.238602,-1.946776 2.23502,-1.252262 -0.08057,0.06006 -0.161133,0.120123 -0.2417,0.180184 0,0 -2.896357,1.151025 -2.896357,1.151025 l 0,0 c 0.07891,-0.05894 0.157821,-0.117886 0.236731,-0.176829 1.111553,-0.907062 2.574948,-1.887322 4.068613,-2.144174 0.523003,-0.009 1.04581,0.0331 1.562898,0.112118 0.519948,0.07765 1.043411,0.116051 1.561777,0.201699 0.500501,0.126386 0.975232,0.337072 1.484803,0.426795 0.584534,0.102984 1.165121,0.232182 1.734303,0.401247 0.595504,0.186855 1.17642,0.407127 1.750609,0.652538 0.61604,0.262022 1.218235,0.546522 1.589687,1.134761 0.322451,0.545806 0.483159,1.143452 0.64063,1.754414 0.184162,0.66903 0.493955,1.295966 0.640462,1.977068 0.106094,0.764001 0.156762,1.532098 0.263153,2.296193 0.08985,0.693283 0.124742,1.393265 0.251783,2.082196 0.04249,0.610758 0.11389,1.21904 0.145479,1.830495 -0.03721,0.545855 -0.09931,1.085958 -0.298648,1.600971 -0.152666,0.487419 -0.418784,0.908898 -0.690664,1.338533 -0.272039,0.333931 -0.582959,0.643686 -0.957968,0.863408 -2.710596,1.588173 -1.984182,1.215639 -3.281096,1.867426 -0.556553,0.235091 -1.128805,0.43093 -1.700015,0.627184 -0.60932,0.205869 -1.203584,0.453384 -1.821237,0.634245 -0.566397,0.138136 -1.12022,0.197717 -1.670497,-0.05007 -0.641246,-0.307483 -1.251833,-0.680885 -1.879998,-1.013501 -0.641603,-0.389966 -1.244732,-0.849811 -1.773035,-1.384707 -0.473213,-0.534983 -0.891844,-1.115761 -1.078151,-1.816654 -0.0948,-0.535178 -0.196997,-1.070226 -0.320126,-1.599022 -0.16395,-0.53433 -0.33813,-1.063636 -0.541167,-1.584289 -0.170044,-0.532362 -0.178782,-1.089053 -0.294425,-1.634391 -0.103317,-0.601134 -0.132518,-1.214839 -0.286125,-1.808141 -0.07962,-0.536805 -0.233164,-1.054783 -0.324379,-1.588161 -0.06433,-0.537029 -0.03259,-1.078926 -0.03702,-1.618984 0.02048,-0.536993 0.04134,-1.086696 0.300818,-1.571283 0.125765,-0.198578 0.186834,-0.32166 0.36163,-0.486315 0.353661,-0.333145 0.818295,-0.53304 1.190834,-0.841534 1.630179,-0.942205 3.234201,-2.061419 5.063372,-2.601828 0,0 -2.488041,1.915673 -2.488041,1.915673 z"
   id="path2988"
   style="stroke-width:0;stroke-miterlimit:4;stroke-dasharray:none" /><path
   d="m 32.992739,23.439601 c 0.735049,0.08236 1.353781,0.427155 1.877254,0.93419 0.431822,0.466052 0.557628,1.053805 0.623022,1.664328 0.05234,0.558744 0.02159,1.109237 -0.08933,1.657923 -0.112874,0.640616 -0.456985,1.177341 -0.820694,1.702216 -0.773935,1.029068 -2.927422,3.174498 -3.495739,1.577434 -0.09078,-0.48322 -0.07177,-0.978625 -0.07208,-1.468064 0.0046,-0.533757 0.0034,-1.067561 0.0076,-1.60132 8.09e-4,-0.364932 -0.0054,-0.181572 0.01912,-0.550065 0,0 2.79645,-1.390978 2.79645,-1.390978 l 0,0 c -0.04463,0.34211 -0.03275,0.167371 -0.03334,0.524369 0.0014,0.533441 -0.0054,1.066887 -0.0064,1.600325 -0.0018,0.458126 -0.01068,0.919438 0.04832,1.374624 0.0053,0.02845 0.0065,0.05793 0.01579,0.08534 0.0093,0.02748 0.0671,-0.09073 0.04198,-0.07622 -4.601813,2.656446 -2.931166,2.004594 -2.169419,1.158896 0.3597,-0.484191 0.724503,-0.983737 0.855981,-1.583967 0.137989,-0.514157 0.173885,-1.035995 0.130425,-1.567134 -0.03832,-0.539293 -0.114321,-1.063768 -0.496498,-1.478128 -0.492085,-0.459716 -1.093555,-0.73279 -1.778272,-0.714157 0,0 2.545773,-1.849612 2.545773,-1.849612 z"
   id="path2990"
   style="stroke-width:0;stroke-miterlimit:4;stroke-dasharray:none" /></svg>